<?xml version="1.0" standalone="no"?>
<!DOCTYPE svg PUBLIC "-//W3C//DTD SVG 1.1//EN" "http://www.w3.org/Graphics/SVG/1.1/DTD/svg11.dtd" >
<svg xmlns="http://www.w3.org/2000/svg">
<metadata>Generated by IcoMoon</metadata>
<defs>
<font id="cicon" horiz-adv-x="1024">
<font-face units-per-em="1024" ascent="960" descent="-64" />
<missing-glyph horiz-adv-x="1024" />
<glyph unicode="&#x20;" horiz-adv-x="512" d="" />
<glyph unicode="&#xe000;" glyph-name="home" d="M50.272 437.481c0.448 5.024 2.528 9.152 6.4 12.352l410.976 342.4c12.128 9.824 26.752 14.848 43.424 14.848s31.328-5.024 43.424-14.848l139.424-116.576v111.552c0 5.248 1.824 9.6 5.024 13.248s7.776 5.024 13.248 5.024h109.728c5.248 0 9.6-1.824 13.248-5.024s5.024-7.776 5.024-13.248v-233.152l125.248-104c3.872-2.976 5.952-7.072 6.4-12.352s-0.928-9.6-4.128-13.472l-35.424-42.272c-2.976-3.424-7.072-5.472-11.872-6.4h-1.824c-5.024 0-8.928 1.376-11.872 4.128l-395.424 329.6-395.424-329.6c-4.576-2.976-9.152-4.352-13.728-4.128-5.024 0.672-8.928 2.752-11.872 6.4l-35.424 42.272c-3.648 3.648-4.8 8-4.576 13.248zM181.728 110.409v274.272c0 0.448 0 0.928 0.224 1.824 0.224 0.672 0.224 1.376 0.224 1.824l328.672 270.848 328.672-270.848c0.448-0.672 0.448-1.824 0.448-3.424v-274.272c0-9.824-3.648-18.528-10.976-25.6-7.328-7.328-15.776-10.976-25.6-10.976h-219.424v219.424h-146.272v-219.424h-219.424c-9.824 0-18.528 3.648-25.6 10.976-7.328 6.848-10.976 15.328-10.976 25.376z" />
<glyph unicode="&#xe001;" glyph-name="search" d="M36.576 512.009c0 54.4 10.528 106.528 31.776 156.352s49.824 92.576 85.728 128.448 78.848 64.448 128.448 85.728 101.728 31.776 156.352 31.776 106.528-10.528 156.352-31.776 92.576-49.824 128.448-85.728 64.448-78.848 85.728-128.448 31.776-101.728 31.776-156.352c0-83.872-23.552-159.776-70.848-228.128l196.128-196.128c14.176-14.176 21.024-31.328 21.024-51.424 0-19.872-7.328-37.024-21.728-51.424s-31.552-21.728-51.424-21.728c-20.576 0-37.728 7.328-51.424 21.728l-196.128 195.424c-68.128-47.328-144.224-70.848-228.128-70.848-54.4 0-106.528 10.528-156.352 31.776s-92.576 49.824-128.448 85.728-64.448 78.848-85.728 128.448-31.552 102.176-31.552 156.576zM182.848 512.009c0-70.4 25.152-130.752 75.2-180.8s110.4-75.2 180.8-75.2 130.752 25.152 180.8 75.2 75.2 110.4 75.2 180.8-25.152 130.752-75.2 180.8c-50.048 50.048-110.4 75.2-180.8 75.2s-130.752-25.152-180.8-75.2c-50.048-50.048-75.2-110.4-75.2-180.8z" />
<glyph unicode="&#xe002;" glyph-name="search-plus" d="M36.576 512.009q0 81.728 31.712 156.288t85.728 128.576 128.576 85.728 156.288 31.712 156.288-31.712 128.576-85.728 85.728-128.576 31.712-156.288q0-125.728-70.848-228l196-196q21.152-21.152 21.152-51.424t-21.44-51.712-51.712-21.44q-30.848 0-51.424 21.728l-196 195.424q-102.272-70.848-228-70.848-81.728 0-156.288 31.712t-128.576 85.728-85.728 128.576-31.712 156.288zM182.848 512.009q0-105.728 75.136-180.864t180.864-75.136 180.864 75.136 75.136 180.864-75.136 180.864-180.864 75.136-180.864-75.136-75.136-180.864zM256 493.705v36.576q0 7.424 5.44 12.864t12.864 5.44h128v128q0 7.424 5.44 12.864t12.864 5.44h36.576q7.424 0 12.864-5.44t5.44-12.864v-128h128q7.424 0 12.864-5.44t5.44-12.864v-36.576q0-7.424-5.44-12.864t-12.864-5.44h-128v-128q0-7.424-5.44-12.864t-12.864-5.44h-36.576q-7.424 0-12.864 5.44t-5.44 12.864v128h-128q-7.424 0-12.864 5.44t-5.44 12.864z" />
<glyph unicode="&#xe003;" glyph-name="search-minus" d="M36.576 512.009q0 81.728 31.712 156.288t85.728 128.576 128.576 85.728 156.288 31.712 156.288-31.712 128.576-85.728 85.728-128.576 31.712-156.288q0-125.728-70.848-228l196-196q21.152-21.152 21.152-51.424t-21.44-51.712-51.712-21.44q-30.848 0-51.424 21.728l-196 195.424q-102.272-70.848-228-70.848-81.728 0-156.288 31.712t-128.576 85.728-85.728 128.576-31.712 156.288zM182.848 512.009q0-105.728 75.136-180.864t180.864-75.136 180.864 75.136 75.136 180.864-75.136 180.864-180.864 75.136-180.864-75.136-75.136-180.864zM256 493.705v36.576q0 7.424 5.44 12.864t12.864 5.44h329.152q7.424 0 12.864-5.44t5.44-12.864v-36.576q0-7.424-5.44-12.864t-12.864-5.44h-329.152q-7.424 0-12.864 5.44t-5.44 12.864z" />
<glyph unicode="&#xe004;" glyph-name="envelope-o" d="M950.857 127.999v438.857q-18.286-20.571-39.429-37.714-153.143-117.714-243.429-193.143-29.143-24.571-47.429-38.286t-49.429-27.714-58.571-14h-1.143q-27.429 0-58.571 14t-49.429 27.714-47.429 38.286q-90.286 75.429-243.429 193.143-21.143 17.143-39.429 37.714v-438.857q0-7.429 5.429-12.857t12.857-5.429h841.143q7.429 0 12.857 5.429t5.429 12.857zM950.857 728.571v14t-0.286 7.429-1.714 7.143-3.143 5.143-5.143 4.286-8 1.429h-841.143q-7.429 0-12.857-5.429t-5.429-12.857q0-96 84-162.286 110.286-86.857 229.143-181.143 3.429-2.857 20-16.857t26.286-21.429 25.429-18 28.857-15.714 24.571-5.143h1.143q11.429 0 24.571 5.143t28.857 15.714 25.429 18 26.286 21.429 20 16.857q118.857 94.286 229.143 181.143 30.857 24.571 57.429 66t26.571 75.143zM1024 749.714v-621.714q0-37.714-26.857-64.571t-64.571-26.857h-841.143q-37.714 0-64.571 26.857t-26.857 64.571v621.714q0 37.714 26.857 64.571t64.571 26.857h841.143q37.714 0 64.571-26.857t26.857-64.571z" />
<glyph unicode="&#xe005;" glyph-name="envelope" d="M1024 581.714v-453.714q0-37.714-26.857-64.571t-64.571-26.857h-841.143q-37.714 0-64.571 26.857t-26.857 64.571v453.714q25.143-28 57.714-49.714 206.857-140.571 284-197.143 32.571-24 52.857-37.429t54-27.429 62.857-14h1.143q29.143 0 62.857 14t54 27.429 52.857 37.429q97.143 70.286 284.571 197.143 32.571 22.286 57.143 49.714zM1024 749.714q0-45.143-28-86.286t-69.714-70.286q-214.857-149.143-267.429-185.714-5.714-4-24.286-17.429t-30.857-21.714-29.714-18.571-32.857-15.429-28.571-5.143h-1.143q-13.143 0-28.571 5.143t-32.857 15.429-29.714 18.571-30.857 21.714-24.286 17.429q-52 36.571-149.714 104.286t-117.143 81.429q-35.429 24-66.857 66t-31.429 78q0 44.571 23.714 74.286t67.714 29.714h841.143q37.143 0 64.286-26.857t27.143-64.571z" />
<glyph unicode="&#xe006;" glyph-name="envelope-square" d="M786.285 877.714q68 0 116.286-48.286t48.286-116.286v-548.571q0-68-48.286-116.286t-116.286-48.286h-548.571q-68 0-116.286 48.286t-48.286 116.286v548.571q0 68 48.286 116.286t116.286 48.286h548.571zM804.571 274.286v249.143q-17.714-20-36.571-31.429-19.429-12.571-75.714-48.571t-86.571-56.571q-56-39.429-93.714-39.429v0 0q-37.714 0-93.714 39.429-26.286 18.286-80.857 52.857t-81.429 52.857q-6.857 4.571-18.857 15.429t-17.714 15.429v-249.143q0-22.857 16-38.857t38.857-16h475.429q22.857 0 38.857 16t16 38.857zM804.571 601.714q0 23.429-15.714 40t-39.143 16.571h-475.429q-22.857 0-38.857-16t-16-38.857q0-21.143 17.429-43.714t38.571-36.857q26.857-18.286 78.571-50.857t74-47.429q1.714-1.143 9.714-6.571t12-8 12-7.429 13.429-7.429 12.286-5.429 12.857-4.286 11.714-1.429 11.714 1.429 12.857 4.286 12.286 5.429 13.429 7.429 12 7.429 12 8 9.714 6.571l152.571 99.429q20 13.143 38 35.714t18 42z" />
<glyph unicode="&#xe008;" glyph-name="paper-plane-o" d="M1008 944.571q18.857-13.714 15.429-36.571l-146.286-877.714q-2.857-16.571-18.286-25.714-8-4.571-17.714-4.571-6.286 0-13.714 2.857l-301.143 122.857-170.286-186.857q-10.286-12-26.857-12-8 0-13.143 2.286-10.857 4-17.143 13.429t-6.286 20.857v258.286l-269.714 110.286q-21.143 8-22.857 31.429-1.714 22.286 18.286 33.714l950.857 548.571q20 12 38.857-1.143zM812.571 88l126.286 756-819.429-472.571 192-78.286 493.143 365.143-273.143-455.429z" />
<glyph unicode="&#xe009;" glyph-name="paper-plane" d="M1008 944.571q18.857-13.714 15.429-36.571l-146.286-877.714q-2.857-16.571-18.286-25.714-8-4.571-17.714-4.571-6.286 0-13.714 2.857l-258.857 105.714-138.286-168.571q-10.286-13.143-28-13.143-7.429 0-12.571 2.286-10.857 4-17.429 13.429t-6.571 20.857v199.429l493.714 605.143-610.857-528.571-225.714 92.571q-21.143 8-22.857 31.429-1.143 22.857 18.286 33.714l950.857 548.571q8.571 5.143 18.286 5.143 11.429 0 20.571-6.286z" />
<glyph unicode="&#xe00a;" glyph-name="paper-plane-square" d="M902.629 829.486c-32.229 32.229-71.086 48.229-116.343 48.229h-548.571c-45.257 0-84.114-16-116.343-48.229s-48.229-71.086-48.229-116.343v-548.571c0-45.257 16-84.114 48.229-116.343s71.086-48.229 116.343-48.229h548.571c45.257 0 84.114 16 116.343 48.229s48.229 70.857 48.229 116.343v548.571c0 45.257-16 84.114-48.229 116.343zM803.886 721.828l-86.171-516.571c-1.143-6.4-4.8-11.657-10.743-15.086-3.2-1.829-6.629-2.743-10.514-2.743-2.514 0-5.257 0.457-8 1.6l-152.229 62.4-81.371-99.2c-4.114-5.257-9.6-7.771-16.457-7.771-2.971 0-5.486 0.457-7.314 1.371-4.343 1.6-7.771 4.114-10.286 8s-3.886 7.771-3.886 12.343v117.257l290.514 356.114-359.543-311.086-132.8 54.4c-8.229 3.2-12.8 9.371-13.486 18.514-0.457 8.914 3.2 15.543 10.743 19.886l559.543 322.743c3.429 2.057 6.857 2.971 10.743 2.971 4.571 0 8.457-1.143 12.114-3.657 7.543-5.257 10.514-12.571 9.143-21.486z" />
<glyph unicode="&#xe00b;" glyph-name="cc" horiz-adv-x="1170" d="M448.571 374.857h118.286q-8-90.286-56.286-142t-122.571-51.714q-92.571 0-145.429 66.286t-52.857 180.571q0 110.857 53.143 178t133.143 67.143q84.571 0 132.571-49.714t55.429-141.143h-116q-2.857 36.571-20.286 56.571t-46.571 20q-32.571 0-50.571-34.571t-18-101.429q0-27.429 2.857-48t10.286-39.714 22.857-29.429 37.714-10.286q54.286 0 62.286 79.429zM855.429 374.857h117.714q-8-90.286-56-142t-122.286-51.714q-92.571 0-145.429 66.286t-52.857 180.571q0 110.857 53.143 178t133.143 67.143q84.571 0 132.571-49.714t55.429-141.143h-116.571q-2.286 36.571-20 56.571t-46.286 20q-32.571 0-50.571-34.571t-18-101.429q0-27.429 2.857-48t10.286-39.714 22.571-29.429 37.429-10.286q28 0 43.714 21.714t19.143 57.714zM1060.571 442.857q0 118.286-8.857 175.429t-34.571 92q-3.429 4.571-7.714 8t-12.286 8.571-9.143 6.286q-49.143 36-398.286 36-357.143 0-405.714-36-2.857-2.286-10-6.571t-12-8-8.286-8.286q-25.714-34.286-34.286-91.143t-8.571-176.286q0-118.857 8.571-175.714t34.286-91.714q3.429-4.571 8.571-8.571t11.714-8 10-6.857q25.143-18.857 136.857-28t268.857-9.143q348.571 0 398.286 37.143 2.857 2.286 9.714 6.286t11.714 8 7.714 9.143q26.286 34.286 34.857 90.857t8.571 176.571zM1170.286 877.714v-877.714h-1170.286v877.714h1170.286z" />
<glyph unicode="&#xe00c;" glyph-name="phone" d="M914.284 205.715q0-15.429-5.714-40.286t-12-39.143q-12-28.571-69.714-60.571-53.714-29.143-106.286-29.143-15.429 0-30 2t-32.857 7.143-27.143 8.286-31.714 11.714-28 10.286q-56 20-100 47.429-73.143 45.143-151.143 123.143t-123.143 151.143q-27.429 44-47.429 100-1.714 5.143-10.286 28t-11.714 31.714-8.286 27.143-7.143 32.857-2 30q0 52.571 29.143 106.286 32 57.714 60.571 69.714 14.286 6.286 39.143 12t40.286 5.714q8 0 12-1.714 10.286-3.429 30.286-43.429 6.286-10.857 17.143-30.857t20-36.286 17.714-30.571q1.714-2.286 10-14.286t12.286-20.286 4-16.286q0-11.429-16.286-28.571t-35.429-31.429-35.429-30.286-16.286-26.286q0-5.143 2.857-12.857t4.857-11.714 8-13.714 6.571-10.857q43.429-78.286 99.429-134.286t134.286-99.429q1.143-0.571 10.857-6.571t13.714-8 11.714-4.857 12.857-2.857q10.286 0 26.286 16.286t30.286 35.429 31.429 35.429 28.571 16.286q8 0 16.286-4t20.286-12.286 14.286-10q14.286-8.571 30.571-17.714t36.286-20 30.857-17.143q40-20 43.429-30.286 1.714-4 1.714-12z" />
<glyph unicode="&#xe00d;" glyph-name="phone-square" d="M804.571 269.143q0 6.286-1.143 9.143-1.714 4.571-22 16.857t-50.571 28.286l-30.286 16.571q-2.857 1.714-10.857 7.429t-14.286 8.571-12 2.857q-10.286 0-26.857-18.571t-32.571-37.429-25.143-18.857q-4 0-9.429 2t-8.857 3.714-9.714 5.429-8 4.857q-56.571 31.429-97.429 72.286t-72.286 97.429q-1.143 1.714-4.857 8t-5.429 9.714-3.714 8.857-2 9.429q0 7.429 11.714 19.143t25.714 22 25.714 22.571 11.714 20.857q0 5.714-2.857 12t-8.571 14.286-7.429 10.857q-1.714 3.429-8.571 16.286t-14.286 26-15.143 27.143-14.286 23.143-9.429 10.286-9.143 1.143q-27.429 0-57.714-12.571-26.286-12-45.714-54t-19.429-74.571q0-9.143 1.429-19.429t2.857-17.429 5.143-18.857 5.714-16.857 7.143-18.857 6.286-17.143q34.286-93.714 123.714-183.143t183.143-123.714q3.429-1.143 17.143-6.286t18.857-7.143 16.857-5.714 18.857-5.143 17.429-2.857 19.429-1.429q32.571 0 74.571 19.429t54 45.714q12.571 30.286 12.571 57.714zM950.856 713.143v-548.571q0-68-48.286-116.286t-116.286-48.286h-548.571q-68 0-116.286 48.286t-48.286 116.286v548.571q0 68 48.286 116.286t116.286 48.286h548.571q68 0 116.286-48.286t48.286-116.286z" />
<glyph unicode="&#xe00e;" glyph-name="fax" d="M164.571 731.428q37.714 0 64.571-26.857t26.857-64.571v-621.714q0-37.714-26.857-64.571t-64.571-26.857h-73.143q-37.714 0-64.571 26.857t-26.857 64.571v621.714q0 37.714 26.857 64.571t64.571 26.857h73.143zM950.857 638.286q33.143-19.429 53.143-53.143t20-73.143v-438.857q0-60.571-42.857-103.429t-103.429-42.857h-493.714q-37.714 0-64.571 26.857t-26.857 64.571v877.714q0 22.857 16 38.857t38.857 16h384q22.857 0 50.286-11.429t43.429-27.429l86.857-86.857q16-16 27.429-43.429t11.429-50.286v-93.143zM530.286 73.143v73.143q0 8-5.143 13.143t-13.143 5.143h-73.143q-8 0-13.143-5.143t-5.143-13.143v-73.143q0-8 5.143-13.143t13.143-5.143h73.143q8 0 13.143 5.143t5.143 13.143zM530.286 219.428v73.143q0 8-5.143 13.143t-13.143 5.143h-73.143q-8 0-13.143-5.143t-5.143-13.143v-73.143q0-8 5.143-13.143t13.143-5.143h73.143q8 0 13.143 5.143t5.143 13.143zM530.286 365.714v73.143q0 8-5.143 13.143t-13.143 5.143h-73.143q-8 0-13.143-5.143t-5.143-13.143v-73.143q0-8 5.143-13.143t13.143-5.143h73.143q8 0 13.143 5.143t5.143 13.143zM676.571 73.143v73.143q0 8-5.143 13.143t-13.143 5.143h-73.143q-8 0-13.143-5.143t-5.143-13.143v-73.143q0-8 5.143-13.143t13.143-5.143h73.143q8 0 13.143 5.143t5.143 13.143zM676.571 219.428v73.143q0 8-5.143 13.143t-13.143 5.143h-73.143q-8 0-13.143-5.143t-5.143-13.143v-73.143q0-8 5.143-13.143t13.143-5.143h73.143q8 0 13.143 5.143t5.143 13.143zM676.571 365.714v73.143q0 8-5.143 13.143t-13.143 5.143h-73.143q-8 0-13.143-5.143t-5.143-13.143v-73.143q0-8 5.143-13.143t13.143-5.143h73.143q8 0 13.143 5.143t5.143 13.143zM822.857 73.143v73.143q0 8-5.143 13.143t-13.143 5.143h-73.143q-8 0-13.143-5.143t-5.143-13.143v-73.143q0-8 5.143-13.143t13.143-5.143h73.143q8 0 13.143 5.143t5.143 13.143zM822.857 219.428v73.143q0 8-5.143 13.143t-13.143 5.143h-73.143q-8 0-13.143-5.143t-5.143-13.143v-73.143q0-8 5.143-13.143t13.143-5.143h73.143q8 0 13.143 5.143t5.143 13.143zM822.857 365.714v73.143q0 8-5.143 13.143t-13.143 5.143h-73.143q-8 0-13.143-5.143t-5.143-13.143v-73.143q0-8 5.143-13.143t13.143-5.143h73.143q8 0 13.143 5.143t5.143 13.143zM877.714 585.143v146.286h-91.429q-22.857 0-38.857 16t-16 38.857v91.429h-365.714v-292.571h512z" />
<glyph unicode="&#xe00f;" glyph-name="tty" d="M256 164.572v-109.714q0-8-5.143-13.143t-13.143-5.143h-109.714q-8 0-13.143 5.143t-5.143 13.143v109.714q0 8 5.143 13.143t13.143 5.143h109.714q8 0 13.143-5.143t5.143-13.143zM146.286 384v-109.714q0-8-5.143-13.143t-13.143-5.143h-109.714q-8 0-13.143 5.143t-5.143 13.143v109.714q0 8 5.143 13.143t13.143 5.143h109.714q8 0 13.143-5.143t5.143-13.143zM475.429 164.572v-109.714q0-8-5.143-13.143t-13.143-5.143h-109.714q-8 0-13.143 5.143t-5.143 13.143v109.714q0 8 5.143 13.143t13.143 5.143h109.714q8 0 13.143-5.143t5.143-13.143zM365.714 384v-109.714q0-8-5.143-13.143t-13.143-5.143h-109.714q-8 0-13.143 5.143t-5.143 13.143v109.714q0 8 5.143 13.143t13.143 5.143h109.714q8 0 13.143-5.143t5.143-13.143zM37.714 475.429q-16 0-26.857 10.857t-10.857 26.286v73.714h293.714v-73.714q0-15.429-10.857-26.286t-26.286-10.857h-218.857zM694.857 164.572v-109.714q0-8-5.143-13.143t-13.143-5.143h-109.714q-8 0-13.143 5.143t-5.143 13.143v109.714q0 8 5.143 13.143t13.143 5.143h109.714q8 0 13.143-5.143t5.143-13.143zM585.143 384v-109.714q0-8-5.143-13.143t-13.143-5.143h-109.714q-8 0-13.143 5.143t-5.143 13.143v109.714q0 8 5.143 13.143t13.143 5.143h109.714q8 0 13.143-5.143t5.143-13.143zM914.286 164.572v-109.714q0-8-5.143-13.143t-13.143-5.143h-109.714q-8 0-13.143 5.143t-5.143 13.143v109.714q0 8 5.143 13.143t13.143 5.143h109.714q8 0 13.143-5.143t5.143-13.143zM804.571 384v-109.714q0-8-5.143-13.143t-13.143-5.143h-109.714q-8 0-13.143 5.143t-5.143 13.143v109.714q0 8 5.143 13.143t13.143 5.143h109.714q8 0 13.143-5.143t5.143-13.143zM1024 617.143v-7.429h-293.714v5.714q0 59.429-218.286 58.286-218.286-0.571-218.286-58.286v-5.714h-293.714v7.429q0 9.714 4.857 24.571t19.429 36.571 37.429 43.143 63.143 43.429 91.429 38.571 128 27.143 167.714 10.571 167.429-10.571 128-27.143 91.714-38.571 63.143-43.429 37.429-43.143 19.429-36.571 4.857-24.571zM1024 384v-109.714q0-8-5.143-13.143t-13.143-5.143h-109.714q-8 0-13.143 5.143t-5.143 13.143v109.714q0 8 5.143 13.143t13.143 5.143h109.714q8 0 13.143-5.143t5.143-13.143zM1024 586.286v-73.714q0-15.429-10.857-26.286t-26.286-10.857h-219.429q-15.429 0-26.286 10.857t-10.857 26.286v73.714h293.714z" />
<glyph unicode="&#xe010;" glyph-name="certificate" d="M859.428 438.857l78.857-77.143q17.143-16 11.429-40-6.857-23.429-29.714-29.143l-107.429-27.429 30.286-106.286q6.857-23.429-10.857-40-16.571-17.714-40-10.857l-106.286 30.286-27.429-107.429q-5.714-22.857-29.143-29.714-6.857-1.143-10.857-1.143-17.714 0-29.143 12.571l-77.143 78.857-77.143-78.857q-16-17.143-40-11.429-23.429 6.286-29.143 29.714l-27.429 107.429-106.286-30.286q-23.429-6.857-40 10.857-17.714 16.571-10.857 40l30.286 106.286-107.429 27.429q-22.857 5.714-29.714 29.143-5.714 24 11.429 40l78.857 77.143-78.857 77.143q-17.143 16-11.429 40 6.857 23.429 29.714 29.143l107.429 27.429-30.286 106.286q-6.857 23.429 10.857 40 16.571 17.714 40 10.857l106.286-30.286 27.429 107.429q5.714 23.429 29.143 29.143 23.429 6.857 40-10.857l77.143-79.429 77.143 79.429q16.571 17.143 40 10.857 23.429-5.714 29.143-29.143l27.429-107.429 106.286 30.286q23.429 6.857 40-10.857 17.714-16.571 10.857-40l-30.286-106.286 107.429-27.429q22.857-5.714 29.714-29.143 5.714-24-11.429-40z" />
<glyph unicode="&#xe011;" glyph-name="square" d="M950.856 713.143v-548.571q0-68-48.286-116.286t-116.286-48.286h-548.571q-68 0-116.286 48.286t-48.286 116.286v548.571q0 68 48.286 116.286t116.286 48.286h548.571q68 0 116.286-48.286t48.286-116.286z" />
<glyph unicode="&#xe012;" glyph-name="square-o" d="M749.713 768h-475.429q-37.714 0-64.571-26.857t-26.857-64.571v-475.429q0-37.714 26.857-64.571t64.571-26.857h475.429q37.714 0 64.571 26.857t26.857 64.571v475.429q0 37.714-26.857 64.571t-64.571 26.857zM914.284 676.572v-475.429q0-68-48.286-116.286t-116.286-48.286h-475.429q-68 0-116.286 48.286t-48.286 116.286v475.429q0 68 48.286 116.286t116.286 48.286h475.429q68 0 116.286-48.286t48.286-116.286z" />
<glyph unicode="&#xe013;" glyph-name="circle" d="M950.856 438.857q0-119.429-58.857-220.286t-159.714-159.714-220.286-58.857-220.286 58.857-159.714 159.714-58.857 220.286 58.857 220.286 159.714 159.714 220.286 58.857 220.286-58.857 159.714-159.714 58.857-220.286z" />
<glyph unicode="&#xe014;" glyph-name="circle-o" d="M511.999 749.714q-84.571 0-156-41.714t-113.143-113.143-41.714-156 41.714-156 113.143-113.143 156-41.714 156 41.714 113.143 113.143 41.714 156-41.714 156-113.143 113.143-156 41.714zM950.856 438.857q0-119.429-58.857-220.286t-159.714-159.714-220.286-58.857-220.286 58.857-159.714 159.714-58.857 220.286 58.857 220.286 159.714 159.714 220.286 58.857 220.286-58.857 159.714-159.714 58.857-220.286z" />
<glyph unicode="&#xe015;" glyph-name="circle-thin" d="M511.999 804.571q-74.286 0-142-29.143t-116.571-78-78-116.571-29.143-142 29.143-142 78-116.571 116.571-78 142-29.143 142 29.143 116.571 78 78 116.571 29.143 142-29.143 142-78 116.571-116.571 78-142 29.143zM950.856 438.857q0-119.429-58.857-220.286t-159.714-159.714-220.286-58.857-220.286 58.857-159.714 159.714-58.857 220.286 58.857 220.286 159.714 159.714 220.286 58.857 220.286-58.857 159.714-159.714 58.857-220.286z" />
<glyph unicode="&#xe017;" glyph-name="dot-circle-o" d="M658.285 438.857q0-60.571-42.857-103.429t-103.429-42.857-103.429 42.857-42.857 103.429 42.857 103.429 103.429 42.857 103.429-42.857 42.857-103.429zM511.999 749.714q-84.571 0-156-41.714t-113.143-113.143-41.714-156 41.714-156 113.143-113.143 156-41.714 156 41.714 113.143 113.143 41.714 156-41.714 156-113.143 113.143-156 41.714zM950.856 438.857q0-119.429-58.857-220.286t-159.714-159.714-220.286-58.857-220.286 58.857-159.714 159.714-58.857 220.286 58.857 220.286 159.714 159.714 220.286 58.857 220.286-58.857 159.714-159.714 58.857-220.286z" />
<glyph unicode="&#xe018;" glyph-name="ban" d="M822.857 439.086c0 61.257-16.457 117.486-49.829 168.686l-430.857-430.171c52.114-33.829 108.8-50.743 169.6-50.743 42.286 0 82.514 8.229 120.914 24.914s71.314 38.857 99.2 66.514 49.829 61.029 66.286 99.657 24.686 78.857 24.686 121.143zM251.886 268.343l431.543 430.857c-51.429 34.514-108.571 51.886-171.429 51.886-56.457 0-108.343-13.943-155.886-41.6s-85.257-65.829-113.143-113.829-41.6-100.114-41.6-156.571c-0.229-61.714 16.686-118.629 50.514-170.743zM950.857 439.086c0-59.886-11.657-117.029-34.743-171.429s-54.4-101.257-93.486-140.571-85.714-70.4-139.886-93.714-111.314-34.743-170.743-34.743-116.343 11.657-170.514 34.743-101.029 54.4-139.886 93.714-70.171 86.171-93.486 140.571-34.743 111.543-34.743 171.429 11.657 116.8 34.743 171.2 54.4 101.029 93.486 140.343 85.714 70.4 139.886 93.714 111.086 34.743 170.514 34.743 116.343-11.657 170.514-34.743 101.029-54.4 139.886-93.714 70.171-85.943 93.486-140.343 34.971-111.314 34.971-171.2z" />
<glyph unicode="&#xe019;" glyph-name="bullseye" d="M658.285 438.857q0-60.571-42.857-103.429t-103.429-42.857-103.429 42.857-42.857 103.429 42.857 103.429 103.429 42.857 103.429-42.857 42.857-103.429zM731.428 438.857q0 90.857-64.286 155.143t-155.143 64.286-155.143-64.286-64.286-155.143 64.286-155.143 155.143-64.286 155.143 64.286 64.286 155.143zM804.571 438.857q0-121.143-85.714-206.857t-206.857-85.714-206.857 85.714-85.714 206.857 85.714 206.857 206.857 85.714 206.857-85.714 85.714-206.857zM877.713 438.857q0 74.286-29.143 142t-78 116.571-116.571 78-142 29.143-142-29.143-116.571-78-78-116.571-29.143-142 29.143-142 78-116.571 116.571-78 142-29.143 142 29.143 116.571 78 78 116.571 29.143 142zM950.856 438.857q0-119.429-58.857-220.286t-159.714-159.714-220.286-58.857-220.286 58.857-159.714 159.714-58.857 220.286 58.857 220.286 159.714 159.714 220.286 58.857 220.286-58.857 159.714-159.714 58.857-220.286z" />
<glyph unicode="&#xe01a;" glyph-name="heart-o" d="M950.857 610.286q0 46.286-12.286 81.714t-31.429 56.286-46.571 34-53.714 17.714-56 4.571-64-14.571-63.143-36.571-49.429-41.143-34.286-35.143q-10.286-12.571-28-12.571t-28 12.571q-13.714 16-34.286 35.143t-49.429 41.143-63.143 36.571-64 14.571-56-4.571-53.714-17.714-46.571-34-31.429-56.286-12.286-81.714q0-96 106.857-202.857l332-320 331.429 319.429q107.429 107.429 107.429 203.429zM1024 610.286q0-126.286-130.857-257.143l-356-342.857q-10.286-10.286-25.143-10.286t-25.143 10.286l-356.571 344q-5.714 4.571-15.714 14.857t-31.714 37.429-38.857 55.714-30.571 69.143-13.429 78.857q0 125.714 72.571 196.571t200.571 70.857q35.429 0 72.286-12.286t68.571-33.143 54.571-39.143 43.429-38.857q20.571 20.571 43.429 38.857t54.571 39.143 68.571 33.143 72.286 12.286q128 0 200.571-70.857t72.571-196.571z" />
<glyph unicode="&#xe01b;" glyph-name="heart" d="M512 0q-14.857 0-25.143 10.286l-356.571 344q-5.714 4.571-15.714 14.857t-31.714 37.429-38.857 55.714-30.571 69.143-13.429 78.857q0 125.714 72.571 196.571t200.571 70.857q35.429 0 72.286-12.286t68.571-33.143 54.571-39.143 43.429-38.857q20.571 20.571 43.429 38.857t54.571 39.143 68.571 33.143 72.286 12.286q128 0 200.571-70.857t72.571-196.571q0-126.286-130.857-257.143l-356-342.857q-10.286-10.286-25.143-10.286z" />
<glyph unicode="&#xe01c;" glyph-name="star-o" d="M36.576 540.105c0 14.176 10.752 22.848 32 26.272l286.848 41.6 128.448 260.128c7.328 15.552 16.448 23.328 27.872 23.328s20.8-7.776 27.872-23.328l128.448-260.128 287.328-41.6c21.248-3.424 32-12.128 32-26.272 0-8.448-5.024-17.6-14.848-27.424l-207.552-202.272 49.152-285.728c0.448-2.752 0.448-6.4 0.448-11.424 0-18.976-7.776-28.576-23.328-28.576-7.328 0-14.848 2.272-22.848 6.848l-256.448 134.848-256.448-134.848c-8.448-4.576-16-6.848-22.848-6.848-8 0-13.952 2.752-18.048 8.224s-5.952 12.352-5.952 20.352c0 2.272 0.448 6.176 1.152 11.424l49.152 285.728-208 202.272c-9.6 10.272-14.4 19.424-14.4 27.424v0zM162.752 505.833l174.848-169.6-41.6-240.672 216 113.824 215.328-113.824-41.152 240.448 174.848 169.6-241.152 35.424-107.872 218.528-107.872-218.272-241.376-35.424z" />
<glyph unicode="&#xe01d;" glyph-name="star-half-o" d="M37.728 546.505c3.424 10.528 13.728 17.152 30.848 19.648l286.848 41.6 128.448 260.128c7.552 15.552 16.928 23.328 27.872 23.328 10.752 0 20.128-7.776 27.872-23.328l128.448-260.128 287.328-41.376c17.152-2.752 27.424-9.152 30.848-19.648s-1.152-21.728-13.728-34.048l-207.552-202.272 49.152-285.728c1.824-12.576 0.672-22.4-3.424-29.472s-10.752-10.528-19.424-10.528c-6.4 0-14.176 2.272-22.848 6.848l-256.448 134.848-256.448-134.848c-8.672-4.576-16.448-6.848-22.848-6.848-8.672 0-15.328 3.424-19.424 10.528s-5.248 16.928-3.424 29.472l49.152 285.728-208 202.272c-12.352 12.128-16.672 23.552-13.248 33.824zM512 209.129l33.824-17.824 181.728-96-34.272 202.976-6.848 37.728 27.872 26.976 146.752 142.848-241.152 35.424-17.152 34.272-90.752 184v-550.4z" />
<glyph unicode="&#xe01e;" glyph-name="star" d="M36.576 540.105c0 14.176 10.752 22.848 32 26.272l286.848 41.6 128.448 260.128c7.328 15.552 16.448 23.328 27.872 23.328s20.8-7.776 27.872-23.328l128.448-260.128 287.328-41.6c21.248-3.424 32-12.128 32-26.272 0-8.448-5.024-17.6-14.848-27.424l-207.552-202.272 49.152-285.728c0.448-2.752 0.448-6.4 0.448-11.424 0-8-2.048-14.848-5.952-20.352-4.128-5.472-9.824-8.224-17.376-8.224-7.328 0-14.848 2.272-22.848 6.848l-256.448 134.848-256.448-134.848c-8.448-4.576-16-6.848-22.848-6.848-8 0-13.952 2.752-18.048 8.224s-5.952 12.352-5.952 20.352c0 2.272 0.448 6.176 1.152 11.424l49.152 285.728-208 202.272c-9.6 10.272-14.4 19.424-14.4 27.424v0z" />
<glyph unicode="&#xe01f;" glyph-name="star-half" d="M36.576 540.105c0 14.176 10.752 22.848 32 26.272l286.848 41.6 128.448 260.128c7.328 15.552 16.448 23.328 27.872 23.328v-765.248l-256.448-134.848c-8.448-4.576-16-6.848-22.848-6.848-8 0-13.952 2.752-18.048 8.224s-5.952 12.352-5.952 20.352c0 2.272 0.448 6.176 1.152 11.424l49.152 285.728-208 202.272c-9.376 10.528-14.176 19.648-14.176 27.648z" />
<glyph unicode="&#xe020;" glyph-name="thumbs-o-up" d="M73.152 109.705v365.728q0 30.272 21.44 51.712t51.712 21.44h156.576q20.576 13.728 78.272 88.576 33.152 42.848 61.152 73.152 13.728 14.272 20.288 48.864t17.44 72.288 35.424 61.728q22.272 21.152 51.424 21.152 48 0 86.272-18.56t58.272-58.016 20-106.272q0-53.152-27.424-109.728h100.576q59.424 0 102.848-43.424t43.424-102.272q0-50.848-28-93.152 5.152-18.848 5.152-39.424 0-44-21.728-82.272 1.728-12 1.728-24.576 0-57.728-34.272-101.728 0.576-79.424-48.576-125.44t-129.728-46.016h-73.728q-54.848 0-108.288 12.864t-123.712 37.44q-66.272 22.848-78.848 22.848h-164.576q-30.272 0-51.712 21.44t-21.44 51.712zM146.272 146.281q0-14.848 10.848-25.728t25.728-10.848 25.728 10.848 10.848 25.728-10.848 25.728-25.728 10.848-25.728-10.848-10.848-25.728zM292.576 109.705h18.272q7.424 0 18.016-1.728t18.848-3.712 21.728-6.272 20-6.56 20.288-7.136 16.576-6.016q120.576-41.728 195.424-41.728h69.152q109.728 0 109.728 95.424 0 14.848-2.848 32 17.152 9.152 27.136 30.016t10.016 42.016-10.272 39.424q30.272 28.576 30.272 68 0 14.272-5.728 31.712t-14.272 27.136q18.272 0.576 30.56 26.848t12.288 46.272q0 29.152-22.272 51.136t-50.848 22.016h-201.152q0 33.152 27.424 91.136t27.424 91.712q0 56-18.272 82.848t-73.152 26.848q-14.848-14.848-21.728-48.576t-17.44-71.712-34.016-62.56q-12.576-13.152-44-52-2.272-2.848-13.152-17.152t-18.016-23.424-19.712-24.288-22.848-25.152-22.016-20.288-22.848-15.424-20.288-5.152h-18.272v-365.728z" />
<glyph unicode="&#xe021;" glyph-name="thumbs-o-down" d="M73.152 402.281v365.728q0 30.272 21.44 51.712t51.712 21.44h164.576q12.576 0 78.848 22.848 73.152 25.152 127.424 37.728t114.272 12.576h64q80 0 129.44-45.152t48.864-123.424v-2.848q34.272-44 34.272-101.728 0-12.576-1.728-24.576 21.728-38.272 21.728-82.272 0-20.576-5.152-39.424 28-42.272 28-93.152 0-58.848-43.424-102.272t-102.848-43.424h-100.576q27.424-56.576 27.424-109.728 0-67.424-20-106.272-20-39.424-58.272-58.016t-86.272-18.56q-29.152 0-51.424 21.152-19.424 18.848-30.848 46.848t-14.56 51.712-10.016 48.288-17.728 36.576q-27.424 28.576-61.152 72.576-57.728 74.848-78.272 88.576h-156.576q-30.272 0-51.712 21.44t-21.44 51.712zM146.272 731.433q0-14.848 10.848-25.728t25.728-10.848 25.728 10.848 10.848 25.728-10.848 25.728-25.728 10.848-25.728-10.848-10.848-25.728zM292.576 402.281h18.272q9.152 0 20.288-5.152t22.848-15.424 22.016-20.288 22.848-25.152 19.712-24.288 18.016-23.424 13.152-17.152q31.424-38.848 44-52 23.424-24.576 34.016-62.56t17.44-71.712 21.728-48.576q54.848 0 73.152 26.848t18.272 82.848q0 33.728-27.424 91.712t-27.424 91.136h201.152q28.576 0 50.848 22.016t22.272 51.136q0 20-12.288 46.272t-30.56 26.848q8.576 9.728 14.272 27.136t5.728 31.712q0 39.424-30.272 68 10.272 18.272 10.272 39.424t-10.016 42.016-27.136 30.016q2.848 17.152 2.848 32 0 48.576-28 72t-77.728 23.424h-73.152q-74.848 0-195.424-41.728-2.848-1.152-16.576-6.016t-20.288-7.136-20-6.56-21.728-6.272-18.848-3.712-18.016-1.728h-18.272v-365.728z" />
<glyph unicode="&#xe022;" glyph-name="thumbs-up" d="M54.848 109.705v365.728q0 14.848 10.848 25.728t25.728 10.848h164.576q14.848 0 25.728-10.848t10.848-25.728v-365.728q0-14.848-10.848-25.728t-25.728-10.848h-164.576q-14.848 0-25.728 10.848t-10.848 25.728zM128 182.857q0-15.424 10.56-26.016t26.016-10.56q14.848 0 25.728 10.56t10.848 26.016q0 14.848-10.848 25.728t-25.728 10.848q-15.424 0-26.016-10.848t-10.56-25.728zM329.152 109.705v366.272q0 14.272 10.272 24.864t24.576 11.712q13.728 1.152 43.424 33.728t57.728 69.152q38.848 49.728 57.728 68.576 10.272 10.272 17.728 27.424t10.016 27.712 7.712 34.56q4 22.272 7.136 34.848t11.136 29.728 19.424 28.576q10.848 10.848 25.728 10.848 26.272 0 47.136-6.016t34.272-14.848 22.848-23.136 13.728-25.728 6.848-28.576 2.848-25.728 0.288-22.272q0-21.728-5.44-43.424t-10.848-34.272-15.712-32q-1.728-3.424-5.728-10.272t-6.272-12.576-4.576-13.728h158.272q44.576 0 77.152-32.576t32.576-77.152q0-49.152-31.424-85.152 8.576-25.152 8.576-43.424 1.728-43.424-24.576-78.272 9.728-32 0-66.848-8.576-32.576-30.848-53.728 5.152-64-28-103.424-36.576-43.424-112.576-44.576h-73.728q-37.728 0-82.272 8.864t-69.44 16.576-68.864 22.56q-70.272 24.576-90.272 25.152-14.848 0.576-25.728 11.136t-10.848 25.44z" />
<glyph unicode="&#xe023;" glyph-name="thumbs-down" d="M54.848 402.281q0-14.848 10.848-25.728t25.728-10.848h164.576q14.848 0 25.728 10.848t10.848 25.728v365.728q0 14.848-10.848 25.728t-25.728 10.848h-164.576q-14.848 0-25.728-10.848t-10.848-25.728v-365.728zM128 694.857q0 15.424 10.56 26.016t26.016 10.56q14.848 0 25.728-10.56t10.848-26.016q0-14.848-10.848-25.728t-25.728-10.848q-15.424 0-26.016 10.848t-10.56 25.728zM329.152 401.705v366.272q0 14.848 10.848 25.44t25.728 11.136q20 0.576 90.272 25.152 44 14.848 68.864 22.56t69.44 16.576 82.272 8.864h73.728q76-1.152 112.576-44.576 33.152-39.424 28-103.424 22.272-21.152 30.848-53.728 9.728-34.848 0-66.848 26.272-34.848 24.576-78.272 0-18.272-8.576-43.424 31.424-34.848 31.424-85.152-0.576-44.576-32.864-77.152t-76.864-32.576h-158.272q2.272-8 4.576-13.728t6.272-12.576 5.728-10.272q10.272-21.152 15.424-32.576t10.848-33.44 5.728-43.712q0-13.728-0.288-22.272t-2.848-25.728-6.848-28.576-13.728-25.728-22.848-23.136-34.272-14.848-47.136-6.016q-14.848 0-25.728 10.848-11.424 11.424-19.424 28.576t-11.136 29.728-7.136 34.848q-5.152 24-7.712 34.56t-10.016 27.712-17.728 27.424q-18.848 18.848-57.728 68.576-28 36.576-57.728 69.152t-43.424 33.728q-14.272 1.152-24.576 11.712t-10.272 24.864z" />
<glyph unicode="&#xe024;" glyph-name="smile-o" d="M721.142 336.571q-21.143-69.143-78.857-111.429t-130.286-42.286-130.286 42.286-78.857 111.429q-4.571 14.286 2.286 27.714t21.714 18q14.286 4.571 27.714-2.286t18-21.714q14.286-45.714 52.857-74t86.571-28.286 86.571 28.286 52.857 74q4.571 14.857 18.286 21.714t28 2.286 21.143-18 2.286-27.714zM438.856 585.143q0-30.286-21.429-51.714t-51.714-21.429-51.714 21.429-21.429 51.714 21.429 51.714 51.714 21.429 51.714-21.429 21.429-51.714zM731.428 585.143q0-30.286-21.429-51.714t-51.714-21.429-51.714 21.429-21.429 51.714 21.429 51.714 51.714 21.429 51.714-21.429 21.429-51.714zM877.713 438.857q0 74.286-29.143 142t-78 116.571-116.571 78-142 29.143-142-29.143-116.571-78-78-116.571-29.143-142 29.143-142 78-116.571 116.571-78 142-29.143 142 29.143 116.571 78 78 116.571 29.143 142zM950.856 438.857q0-119.429-58.857-220.286t-159.714-159.714-220.286-58.857-220.286 58.857-159.714 159.714-58.857 220.286 58.857 220.286 159.714 159.714 220.286 58.857 220.286-58.857 159.714-159.714 58.857-220.286z" />
<glyph unicode="&#xe025;" glyph-name="frown-o" d="M721.142 248.571q4.571-14.286-2.286-27.714t-21.143-18-28 2.286-18.286 21.714q-14.286 45.714-52.857 74t-86.571 28.286-86.571-28.286-52.857-74q-4.571-14.857-18-21.714t-27.714-2.286q-14.857 4.571-21.714 18t-2.286 27.714q21.143 69.143 78.857 111.429t130.286 42.286 130.286-42.286 78.857-111.429zM438.856 585.143q0-30.286-21.429-51.714t-51.714-21.429-51.714 21.429-21.429 51.714 21.429 51.714 51.714 21.429 51.714-21.429 21.429-51.714zM731.428 585.143q0-30.286-21.429-51.714t-51.714-21.429-51.714 21.429-21.429 51.714 21.429 51.714 51.714 21.429 51.714-21.429 21.429-51.714zM877.713 438.857q0 74.286-29.143 142t-78 116.571-116.571 78-142 29.143-142-29.143-116.571-78-78-116.571-29.143-142 29.143-142 78-116.571 116.571-78 142-29.143 142 29.143 116.571 78 78 116.571 29.143 142zM950.856 438.857q0-119.429-58.857-220.286t-159.714-159.714-220.286-58.857-220.286 58.857-159.714 159.714-58.857 220.286 58.857 220.286 159.714 159.714 220.286 58.857 220.286-58.857 159.714-159.714 58.857-220.286z" />
<glyph unicode="&#xe026;" glyph-name="meh-o" d="M731.428 329.143q0-14.857-10.857-25.714t-25.714-10.857h-365.714q-14.857 0-25.714 10.857t-10.857 25.714 10.857 25.714 25.714 10.857h365.714q14.857 0 25.714-10.857t10.857-25.714zM438.856 585.143q0-30.286-21.429-51.714t-51.714-21.429-51.714 21.429-21.429 51.714 21.429 51.714 51.714 21.429 51.714-21.429 21.429-51.714zM731.428 585.143q0-30.286-21.429-51.714t-51.714-21.429-51.714 21.429-21.429 51.714 21.429 51.714 51.714 21.429 51.714-21.429 21.429-51.714zM877.713 438.857q0 74.286-29.143 142t-78 116.571-116.571 78-142 29.143-142-29.143-116.571-78-78-116.571-29.143-142 29.143-142 78-116.571 116.571-78 142-29.143 142 29.143 116.571 78 78 116.571 29.143 142zM950.856 438.857q0-119.429-58.857-220.286t-159.714-159.714-220.286-58.857-220.286 58.857-159.714 159.714-58.857 220.286 58.857 220.286 159.714 159.714 220.286 58.857 220.286-58.857 159.714-159.714 58.857-220.286z" />
<glyph unicode="&#xe027;" glyph-name="user" d="M109.728 148.105c0 20.128 0.672 40 2.048 59.2s3.872 40 8 62.176c3.872 22.4 9.152 42.976 15.072 61.952 6.176 18.976 14.176 37.728 24.672 55.776 10.272 18.048 22.176 33.6 35.424 46.176 13.248 12.8 29.728 22.848 48.928 30.624 19.2 7.552 40.448 11.424 63.776 11.424 3.424 0 11.424-4.128 24-12.352s26.752-17.376 42.528-27.424c15.776-10.048 36.352-19.2 61.728-27.424s50.752-12.352 76.352-12.352c25.6 0 50.976 4.128 76.352 12.352s45.952 17.376 61.728 27.424c15.776 10.048 29.952 19.2 42.528 27.424s20.576 12.352 24 12.352c23.328 0 44.576-3.872 63.776-11.424s35.424-17.824 48.928-30.624c13.248-12.8 25.152-28.128 35.424-46.176s18.528-36.576 24.672-55.776c6.176-18.976 11.2-39.776 15.072-61.952s6.624-42.976 8-62.176c1.376-19.2 2.048-38.848 2.048-59.2 0-45.728-13.952-81.824-41.6-108.352-27.872-26.528-64.672-39.776-110.848-39.776h-499.872c-46.176 0-82.976 13.248-110.848 39.776s-41.824 62.624-41.824 108.352zM292.576 658.281c0 60.576 21.472 112.224 64.224 155.2s94.624 64.224 155.2 64.224c60.576 0 112.224-21.472 155.2-64.224s64.224-94.624 64.224-155.2-21.472-112.224-64.224-155.2-94.624-64.224-155.2-64.224c-60.576 0-112.224 21.472-155.2 64.224s-64.224 94.624-64.224 155.2z" />
<glyph unicode="&#xe028;" glyph-name="user-plus" horiz-adv-x="1170" d="M402.286 438.857q-90.857 0-155.143 64.286t-64.286 155.143 64.286 155.143 155.143 64.286 155.143-64.286 64.286-155.143-64.286-155.143-155.143-64.286zM950.857 365.714h201.143q7.429 0 12.857-5.429t5.429-12.857v-109.714q0-7.429-5.429-12.857t-12.857-5.429h-201.143v-201.143q0-7.429-5.429-12.857t-12.857-5.429h-109.714q-7.429 0-12.857 5.429t-5.429 12.857v201.143h-201.143q-7.429 0-12.857 5.429t-5.429 12.857v109.714q0 7.429 5.429 12.857t12.857 5.429h201.143v201.143q0 7.429 5.429 12.857t12.857 5.429h109.714q7.429 0 12.857-5.429t5.429-12.857v-201.143zM530.286 237.714q0-29.714 21.714-51.429t51.429-21.714h146.286v-136q-38.857-28.571-97.714-28.571h-499.429q-69.143 0-110.857 39.429t-41.714 108.571q0 30.286 2 59.143t8 62.286 15.143 62 24.571 55.714 35.429 46.286 48.857 30.571 63.714 11.429q10.857 0 22.286-9.714 45.143-34.857 88.286-52.286t94-17.429 94 17.429 88.286 52.286q11.429 9.714 22.286 9.714 75.429 0 124-54.857h-127.429q-29.714 0-51.429-21.714t-21.714-51.429v-109.714z" />
<glyph unicode="&#xe029;" glyph-name="user-times" horiz-adv-x="1170" d="M402.286 438.857q-90.857 0-155.143 64.286t-64.286 155.143 64.286 155.143 155.143 64.286 155.143-64.286 64.286-155.143-64.286-155.143-155.143-64.286zM1017.714 256l142.286-142.286q5.143-5.143 5.143-13.143 0-7.429-5.143-12.571l-77.714-77.714q-5.143-5.143-12.571-5.143-8 0-13.143 5.143l-142.286 142.286-142.286-142.286q-5.143-5.143-13.143-5.143-7.429 0-12.571 5.143l-77.714 77.714q-5.143 5.143-5.143 12.571 0 8 5.143 13.143l142.286 142.286-142.286 142.286q-5.143 5.143-5.143 13.143 0 7.429 5.143 12.571l77.714 77.714q5.143 5.143 12.571 5.143 8 0 13.143-5.143l142.286-142.286 142.286 142.286q5.143 5.143 13.143 5.143 7.429 0 12.571-5.143l77.714-77.714q5.143-5.143 5.143-12.571 0-8-5.143-13.143zM733.143 256l-103.429-103.429q-21.143-21.143-21.143-52 0-30.286 21.143-51.429l47.429-47.429q-12-1.714-25.143-1.714h-499.429q-69.143 0-110.857 39.429t-41.714 108.571q0 30.286 2 59.143t8 62.286 15.143 62 24.571 55.714 35.429 46.286 48.857 30.571 63.714 11.429q10.857 0 22.286-9.714 88-69.714 182.286-69.714t182.286 69.714q11.429 9.714 22.286 9.714 16 0 32.571-3.429-16-15.429-23.429-28.571t-7.429-32q0-30.857 21.143-52z" />
<glyph unicode="&#xe02a;" glyph-name="users" horiz-adv-x="1097" d="M338.857 438.857q-92.571-2.857-151.429-73.143h-76.571q-46.857 0-78.857 23.143t-32 67.714q0 201.714 70.857 201.714 3.429 0 24.857-12t55.714-24.286 68-12.286q38.286 0 76 13.143-2.857-21.143-2.857-37.714 0-79.429 46.286-146.286zM950.857 74.857q0-68.571-41.714-108.286t-110.857-39.714h-499.429q-69.143 0-110.857 39.714t-41.714 108.286q0 30.286 2 59.143t8 62.286 15.143 62 24.571 55.714 35.429 46.286 48.857 30.571 63.714 11.429q5.714 0 24.571-12.286t41.714-27.429 61.143-27.429 77.143-12.286 77.143 12.286 61.143 27.429 41.714 27.429 24.571 12.286q34.857 0 63.714-11.429t48.857-30.571 35.429-46.286 24.571-55.714 15.143-62 8-62.286 2-59.143zM365.714 804.571q0-60.571-42.857-103.429t-103.429-42.857-103.429 42.857-42.857 103.429 42.857 103.429 103.429 42.857 103.429-42.857 42.857-103.429zM768 585.143q0-90.857-64.286-155.143t-155.143-64.286-155.143 64.286-64.286 155.143 64.286 155.143 155.143 64.286 155.143-64.286 64.286-155.143zM1097.143 456.571q0-44.571-32-67.714t-78.857-23.143h-76.571q-58.857 70.286-151.429 73.143 46.286 66.857 46.286 146.286 0 16.571-2.857 37.714 37.714-13.143 76-13.143 33.714 0 68 12.286t55.714 24.286 24.857 12q70.857 0 70.857-201.714zM1024 804.571q0-60.571-42.857-103.429t-103.429-42.857-103.429 42.857-42.857 103.429 42.857 103.429 103.429 42.857 103.429-42.857 42.857-103.429z" />
<glyph unicode="&#xe02b;" glyph-name="user-secret" d="M438.856 36.572l54.857 256-54.857 73.143-73.143 36.571zM585.142 36.572l73.143 365.714-73.143-36.571-54.857-73.143zM676.57 613.715q-1.143 2.286-2.286 3.429-5.714 4.571-54.857 4.571-40 0-95.429-10.857-4-1.143-12-1.143t-12 1.143q-55.429 10.857-95.429 10.857-49.143 0-54.857-4.571-1.143-1.143-2.286-3.429 1.143-10.286 2.286-15.429 1.143-1.714 4.286-3.714t4.286-6q1.143-2.286 4.286-11.714t4-11.714 4.286-9.714 4.857-9.714 5.143-8 6.857-7.714 8-5.429 10-4.571 11.714-2.286 14-1.143q20.571 0 33.714 7.143t18.571 17.143 8.286 19.714 6.571 16.857 10 7.143h6.857q6.286 0 10-7.143t6.571-16.857 8.286-19.714 18.571-17.143 33.714-7.143q7.429 0 14 1.143t11.714 2.286 10 4.571 8 5.429 6.857 7.714 5.143 8 4.857 9.714 4.286 9.714 4 11.714 4.286 11.714q1.143 4 4.286 6t4.286 3.714q1.143 5.143 2.286 15.429zM914.284 111.429q0-69.143-41.714-108.571t-110.857-39.429h-499.429q-69.143 0-110.857 39.429t-41.714 108.571q0 34.857 2.571 67.429t10.857 71.714 21.429 70.571 36.286 59.143 53.429 42.571l-51.429 125.714h122.286q-12.571 36.571-12.571 73.143 0 6.857 1.143 18.286-110.857 22.857-110.857 54.857 0 32.571 120 56.571 9.714 35.429 29.429 76.571t40.286 65.143q18.286 21.143 43.429 21.143 17.143 0 48-17.714t48-17.714 48 17.714 48 17.714q25.143 0 43.429-21.143 20.571-24 40.286-65.143t29.429-76.571q120-24 120-56.571 0-32-110.857-54.857 4-46.286-11.429-91.429h122.286l-46.857-128.571q36-18.857 61.429-55.143t37.429-82 16.571-86.571 4.571-84.857z" />
<glyph unicode="&#xe02c;" glyph-name="user-md" d="M109.728 148.105c0 25.824 1.152 50.752 3.2 74.976 2.048 24 6.624 50.272 13.728 78.848s16 53.728 27.2 75.648c10.976 21.952 26.528 41.6 46.176 58.976 19.872 17.376 42.752 28.8 68.576 34.528-8.448-19.872-12.576-42.752-12.576-68.576v-116.128c-22.176-7.552-39.776-21.024-53.024-40-13.472-19.2-20.128-40.224-20.128-63.552 0-30.4 10.752-56.448 32-77.728s47.328-32 77.728-32 56.448 10.752 77.728 32c21.248 21.248 32 47.328 32 77.728 0 23.328-6.848 44.352-20.352 63.552-13.472 18.976-31.072 32.448-52.8 40v116.128c0 23.552 4.8 41.376 14.176 53.024 50.272-39.552 106.528-59.424 168.672-59.424s118.4 19.872 168.672 59.424c9.6-11.872 14.176-29.472 14.176-53.024v-36.576c-40.448 0-74.976-14.176-103.328-42.976-28.576-28.576-42.976-63.072-42.976-103.328v-50.752c-12.128-10.976-18.272-24.672-18.272-40.672 0-15.328 5.248-28.128 16-38.848s23.552-16 38.848-16c15.328 0 28.128 5.248 38.848 16s16 23.552 16 38.848c0 16-6.176 29.472-18.272 40.672v50.752c0 19.872 7.328 37.024 21.728 51.424s31.552 21.728 51.424 21.728c19.872 0 37.024-7.328 51.424-21.728s21.728-31.552 21.728-51.424v-50.752c-12.128-10.976-18.272-24.672-18.272-40.672 0-15.328 5.248-28.128 16-38.848s23.552-16 38.848-16c15.328 0 28.128 5.248 38.848 16s16 23.552 16 38.848c0 16-6.176 29.472-18.272 40.672v50.752c0 25.824-6.624 50.272-19.648 72.928s-30.848 40.448-53.472 53.472c0 3.872 0 11.872 0.224 24.224s0.224 21.472 0 27.424c-0.224 5.952-0.672 13.728-1.376 23.776-0.672 9.824-2.048 18.752-4.128 26.976-1.824 8-4.352 15.552-7.328 22.848 25.824-5.728 48.672-17.152 68.576-34.528s35.2-37.024 46.176-58.976c10.976-21.952 20.128-47.072 27.2-75.648s11.648-54.848 13.728-78.848c2.048-24 3.2-48.928 3.2-74.976 0-46.176-13.952-82.272-41.6-108.576-27.872-26.272-64.672-39.328-110.848-39.328h-499.648c-46.176 0-82.976 13.248-110.848 39.328s-41.6 62.176-41.6 108.352zM256 182.857c0 9.824 3.648 18.528 10.976 25.6 7.328 7.328 15.776 10.976 25.6 10.976s18.528-3.648 25.824-10.976c7.328-7.328 10.976-15.776 10.976-25.6s-3.648-18.528-10.976-25.6c-7.328-7.328-15.776-10.976-25.824-10.976-9.824 0-18.528 3.648-25.6 10.976-7.328 7.072-10.976 15.776-10.976 25.6zM292.576 658.281c0 60.576 21.472 112.224 64.224 155.2s94.624 64.224 155.2 64.224c60.576 0 112.224-21.472 155.2-64.224s64.224-94.624 64.224-155.2-21.472-112.224-64.224-155.2-94.624-64.224-155.2-64.224c-60.576 0-112.224 21.472-155.2 64.224s-64.224 94.624-64.224 155.2z" />
<glyph unicode="&#xe02d;" glyph-name="male" d="M804.569 548.571v-237.714q0-22.857-16-38.857t-38.857-16-38.857 16-16 38.857v201.143h-36.571v-521.143q0-26.286-18.857-45.143t-45.143-18.857-45.143 18.857-18.857 45.143v265.143h-36.571v-265.143q0-26.286-18.857-45.143t-45.143-18.857-45.143 18.857-18.857 45.143v521.143h-36.571v-201.143q0-22.857-16-38.857t-38.857-16-38.857 16-16 38.857v237.714q0 45.714 32 77.714t77.714 32h365.714q45.714 0 77.714-32t32-77.714zM639.997 804.571q0-53.143-37.429-90.571t-90.571-37.429-90.571 37.429-37.429 90.571 37.429 90.571 90.571 37.429 90.571-37.429 37.429-90.571z" />
<glyph unicode="&#xe02e;" glyph-name="female" d="M877.713 347.428q0-22.857-16-38.857t-38.857-16q-29.143 0-45.714 24.571l-129.714 194.857h-25.714v-75.429l141.143-234.857q5.143-8.571 5.143-18.857 0-14.857-10.857-25.714t-25.714-10.857h-109.714v-155.429q0-26.286-18.857-45.143t-45.143-18.857h-91.429q-26.286 0-45.143 18.857t-18.857 45.143v155.429h-109.714q-14.857 0-25.714 10.857t-10.857 25.714q0 10.286 5.143 18.857l141.143 234.857v75.429h-25.714l-129.714-194.857q-16.571-24.571-45.714-24.571-22.857 0-38.857 16t-16 38.857q0 16.571 9.143 30.286l146.286 219.429q41.714 61.143 100.571 61.143h219.429q58.857 0 100.571-61.143l146.286-219.429q9.143-13.714 9.143-30.286zM639.998 804.571q0-53.143-37.429-90.571t-90.571-37.429-90.571 37.429-37.429 90.571 37.429 90.571 90.571 37.429 90.571-37.429 37.429-90.571z" />
<glyph unicode="&#xe02f;" glyph-name="child" d="M825.141 637.714l-166.857-166.857v-470.857q0-26.286-18.857-45.143t-45.143-18.857-45.143 18.857-18.857 45.143v219.429h-36.571v-219.429q0-26.286-18.857-45.143t-45.143-18.857-45.143 18.857-18.857 45.143v470.857l-166.857 166.857q-16 16-16 38.857t16 38.857 38.857 16 38.857-16l130.286-130.286h210.286l130.286 130.286q16 16 38.857 16t38.857-16 16-38.857-16-38.857zM639.998 731.428q0-53.143-37.429-90.571t-90.571-37.429-90.571 37.429-37.429 90.571 37.429 90.571 90.571 37.429 90.571-37.429 37.429-90.571z" />
<glyph unicode="&#xe030;" glyph-name="check" d="M68.576 437.929c0 15.328 5.248 28.128 16 38.848l77.728 77.728c10.752 10.752 23.552 16 38.848 16s28.128-5.248 38.848-16l168-168.672 374.848 375.328c10.752 10.752 23.552 16 38.848 16s28.128-5.248 38.848-16l77.728-77.728c10.752-10.752 16-23.552 16-38.848s-5.248-28.128-16-38.848l-491.424-491.424c-10.752-10.752-23.552-16-38.848-16s-28.128 5.248-38.848 16l-284.576 284.8c-10.528 10.752-16 23.552-16 38.848v0z" />
<glyph unicode="&#xe031;" glyph-name="times" d="M173.728 230.857c0 15.328 5.248 28.128 16 38.848l168 168-168 168c-10.752 10.752-16 23.552-16 38.848s5.248 28.128 16 38.848l77.728 77.728c10.752 10.752 23.552 16 38.848 16s28.128-5.248 38.848-16l168-168 168 168c10.752 10.752 23.552 16 38.848 16s28.128-5.248 38.848-16l77.728-77.728c10.752-10.752 16-23.552 16-38.848s-5.248-28.128-16-38.848l-168-168 168-168c10.752-10.752 16-23.552 16-38.848s-5.248-28.128-16-38.848l-77.728-77.728c-10.752-10.752-23.552-16-38.848-16s-28.128 5.248-38.848 16l-168 168-168-168c-10.752-10.752-23.552-16-38.848-16s-28.128 5.248-38.848 16l-77.728 77.728c-10.752 10.752-16 23.552-16 38.848z" />
<glyph unicode="&#xe032;" glyph-name="check-square" d="M464.571 208.571l350.857 350.857q10.857 10.857 10.857 25.714t-10.857 25.714l-58.286 58.286q-10.857 10.857-25.714 10.857t-25.714-10.857l-266.857-266.857-120.571 120.571q-10.857 10.857-25.714 10.857t-25.714-10.857l-58.286-58.286q-10.857-10.857-10.857-25.714t10.857-25.714l204.571-204.571q10.857-10.857 25.714-10.857t25.714 10.857zM950.856 713.143v-548.571q0-68-48.286-116.286t-116.286-48.286h-548.571q-68 0-116.286 48.286t-48.286 116.286v548.571q0 68 48.286 116.286t116.286 48.286h548.571q68 0 116.286-48.286t48.286-116.286z" />
<glyph unicode="&#xe033;" glyph-name="times-square" d="M902.629 829.486c-32.229 32.229-71.086 48.229-116.343 48.229h-548.571c-45.257 0-84.114-16-116.343-48.229s-48.229-71.086-48.229-116.343v-548.571c0-45.257 16-84.114 48.229-116.343s71.086-48.229 116.343-48.229h548.571c45.257 0 84.114 16 116.343 48.229s48.229 70.857 48.229 116.343v548.571c0 45.257-16 84.114-48.229 116.343zM732.343 328.686c7.771-7.771 11.657-16.914 11.657-27.429 0-10.971-3.886-20.343-11.657-28.114l-54.857-54.857c-7.771-7.771-17.143-11.657-28.114-11.657-10.514 0-19.657 3.886-27.429 11.657l-109.943 110.4-110.171-110.171c-7.771-7.771-16.914-11.657-27.429-11.657-10.971 0-20.343 3.886-28.114 11.657l-54.857 54.857c-7.771 7.771-11.657 17.143-11.657 28.114 0 10.514 3.886 19.657 11.657 27.429l110.171 110.171-110.171 110.171c-7.771 7.771-11.657 16.914-11.657 27.429 0 10.971 3.886 20.343 11.657 28.114l54.857 54.857c7.771 7.771 17.143 11.657 28.114 11.657 10.514 0 19.657-3.886 27.429-11.657l110.171-110.171 110.171 110.171c7.771 7.771 16.914 11.657 27.429 11.657 10.971 0 20.343-3.886 28.114-11.657l54.857-54.857c7.771-7.771 11.657-17.143 11.657-28.114 0-10.514-3.886-19.657-11.657-27.429l-110.4-110.4 110.171-110.171z" />
<glyph unicode="&#xe034;" glyph-name="check-square-o" d="M36.8 201.129v475.424c0 45.248 16 84.128 48.224 116.352s70.848 48.224 116.352 48.224h475.424c24 0 46.176-4.8 66.752-14.176 5.728-2.752 9.152-7.072 10.272-13.248 1.152-6.4-0.448-11.872-5.024-16.448l-27.872-27.872c-3.872-3.872-8.224-5.728-13.248-5.728-1.152 0-2.752 0.448-5.024 1.152-8.672 2.272-17.376 3.424-25.6 3.424h-475.424c-25.152 0-46.624-8.928-64.448-26.976s-26.976-39.328-26.976-64.448v-475.424c0-25.152 8.928-46.624 26.976-64.448 17.824-17.824 39.328-26.976 64.448-26.976h475.424c25.152 0 46.624 8.928 64.448 26.976 17.824 17.824 26.976 39.328 26.976 64.448v145.152c0 5.024 1.824 9.152 5.024 12.576l36.576 36.576c3.872 3.872 8.224 5.728 13.248 5.728 2.272 0 4.576-0.448 6.848-1.824 7.552-2.976 11.424-8.672 11.424-16.448v-181.728c0-45.248-16-84.128-48.224-116.352s-70.848-48.224-116.352-48.224h-475.424c-45.248 0-84.128 16-116.352 48.224-32.224 32-48.448 70.848-48.448 116.128zM183.776 475.433c0 12.576 4.576 23.328 13.728 32.448l62.848 62.848c9.152 9.152 20.128 13.728 32.448 13.728s23.328-4.576 32.448-13.728l150.4-150.4 369.824 369.824c9.152 9.152 20.128 13.728 32.448 13.728s23.328-4.576 32.448-13.728l62.848-62.848c9.152-9.152 13.728-20.128 13.728-32.448s-4.576-23.328-13.728-32.448l-464.928-465.152c-9.152-9.152-20.128-13.728-32.448-13.728s-23.328 4.576-32.448 13.728l-245.952 245.728c-9.152 9.152-13.728 19.872-13.728 32.448z" />
<glyph unicode="&#xe035;" glyph-name="check-circle" d="M806.856 531.428q0 16-10.286 26.286l-52 51.429q-10.857 10.857-25.714 10.857t-25.714-10.857l-233.143-232.571-129.143 129.143q-10.857 10.857-25.714 10.857t-25.714-10.857l-52-51.429q-10.286-10.286-10.286-26.286 0-15.429 10.286-25.714l206.857-206.857q10.857-10.857 25.714-10.857 15.429 0 26.286 10.857l310.286 310.286q10.286 10.286 10.286 25.714zM950.856 438.857q0-119.429-58.857-220.286t-159.714-159.714-220.286-58.857-220.286 58.857-159.714 159.714-58.857 220.286 58.857 220.286 159.714 159.714 220.286 58.857 220.286-58.857 159.714-159.714 58.857-220.286z" />
<glyph unicode="&#xe036;" glyph-name="times-circle" d="M729.713 309.714q0 14.857-10.857 25.714l-103.429 103.429 103.429 103.429q10.857 10.857 10.857 25.714 0 15.429-10.857 26.286l-51.429 51.429q-10.857 10.857-26.286 10.857-14.857 0-25.714-10.857l-103.429-103.429-103.429 103.429q-10.857 10.857-25.714 10.857-15.429 0-26.286-10.857l-51.429-51.429q-10.857-10.857-10.857-26.286 0-14.857 10.857-25.714l103.429-103.429-103.429-103.429q-10.857-10.857-10.857-25.714 0-15.429 10.857-26.286l51.429-51.429q10.857-10.857 26.286-10.857 14.857 0 25.714 10.857l103.429 103.429 103.429-103.429q10.857-10.857 25.714-10.857 15.429 0 26.286 10.857l51.429 51.429q10.857 10.857 10.857 26.286zM950.856 438.857q0-119.429-58.857-220.286t-159.714-159.714-220.286-58.857-220.286 58.857-159.714 159.714-58.857 220.286 58.857 220.286 159.714 159.714 220.286 58.857 220.286-58.857 159.714-159.714 58.857-220.286z" />
<glyph unicode="&#xe037;" glyph-name="check-circle-o" d="M742.285 486.286l-241.143-241.143q-10.857-10.857-25.714-10.857t-25.714 10.857l-168 168q-10.857 10.857-10.857 25.714t10.857 25.714l58.286 58.286q10.857 10.857 25.714 10.857t25.714-10.857l84-84 157.143 157.143q10.857 10.857 25.714 10.857t25.714-10.857l58.286-58.286q10.857-10.857 10.857-25.714t-10.857-25.714zM822.856 438.857q0 84.571-41.714 156t-113.143 113.143-156 41.714-156-41.714-113.143-113.143-41.714-156 41.714-156 113.143-113.143 156-41.714 156 41.714 113.143 113.143 41.714 156zM950.856 438.857q0-119.429-58.857-220.286t-159.714-159.714-220.286-58.857-220.286 58.857-159.714 159.714-58.857 220.286 58.857 220.286 159.714 159.714 220.286 58.857 220.286-58.857 159.714-159.714 58.857-220.286z" />
<glyph unicode="&#xe038;" glyph-name="times-circle-o" d="M699.999 334.286l-83.429-83.429q-5.714-5.714-13.143-5.714t-13.143 5.714l-78.286 78.286-78.286-78.286q-5.714-5.714-13.143-5.714t-13.143 5.714l-83.429 83.429q-5.714 5.714-5.714 13.143t5.714 13.143l78.286 78.286-78.286 78.286q-5.714 5.714-5.714 13.143t5.714 13.143l83.429 83.429q5.714 5.714 13.143 5.714t13.143-5.714l78.286-78.286 78.286 78.286q5.714 5.714 13.143 5.714t13.143-5.714l83.429-83.429q5.714-5.714 5.714-13.143t-5.714-13.143l-78.286-78.286 78.286-78.286q5.714-5.714 5.714-13.143t-5.714-13.143zM822.856 438.857q0 84.571-41.714 156t-113.143 113.143-156 41.714-156-41.714-113.143-113.143-41.714-156 41.714-156 113.143-113.143 156-41.714 156 41.714 113.143 113.143 41.714 156zM950.856 438.857q0-119.429-58.857-220.286t-159.714-159.714-220.286-58.857-220.286 58.857-159.714 159.714-58.857 220.286 58.857 220.286 159.714 159.714 220.286 58.857 220.286-58.857 159.714-159.714 58.857-220.286z" />
<glyph unicode="&#xe03a;" glyph-name="plus" d="M109.728 384.009v109.728c0 15.328 5.248 28.128 16 38.848s23.552 16 38.848 16h237.728v237.728c0 15.328 5.248 28.128 16 38.848s23.552 16 38.848 16h109.728c15.328 0 28.128-5.248 38.848-16s16-23.552 16-38.848v-237.728h237.728c15.328 0 28.128-5.248 38.848-16s16-23.552 16-38.848v-109.728c0-15.328-5.248-28.128-16-38.848s-23.552-16-38.848-16h-237.728v-237.728c0-15.328-5.248-28.128-16-38.848s-23.552-16-38.848-16h-109.728c-15.328 0-28.128 5.248-38.848 16s-16 23.552-16 38.848v237.728h-237.728c-15.328 0-28.128 5.248-38.848 16s-16 23.552-16 38.848z" />
<glyph unicode="&#xe03b;" glyph-name="minus" d="M109.728 384.009v109.728c0 15.328 5.248 28.128 16 38.848s23.552 16 38.848 16h694.848c15.328 0 28.128-5.248 38.848-16s16-23.552 16-38.848v-109.728c0-15.328-5.248-28.128-16-38.848s-23.552-16-38.848-16h-694.848c-15.328 0-28.128 5.248-38.848 16s-16 23.552-16 38.848z" />
<glyph unicode="&#xe03c;" glyph-name="plus-circle" d="M73.152 438.857q0 119.424 58.848 220.288t159.712 159.712 220.288 58.848 220.288-58.848 159.712-159.712 58.848-220.288-58.848-220.288-159.712-159.712-220.288-58.848-220.288 58.848-159.712 159.712-58.848 220.288zM256 402.281q0-14.848 10.848-25.728t25.728-10.848h146.272v-146.272q0-14.848 10.848-25.728t25.728-10.848h73.152q14.848 0 25.728 10.848t10.848 25.728v146.272h146.272q14.848 0 25.728 10.848t10.848 25.728v73.152q0 14.848-10.848 25.728t-25.728 10.848h-146.272v146.272q0 14.848-10.848 25.728t-25.728 10.848h-73.152q-14.848 0-25.728-10.848t-10.848-25.728v-146.272h-146.272q-14.848 0-25.728-10.848t-10.848-25.728v-73.152z" />
<glyph unicode="&#xe03d;" glyph-name="minus-circle" d="M767.999 402.286v73.143q0 14.857-10.857 25.714t-25.714 10.857h-438.857q-14.857 0-25.714-10.857t-10.857-25.714v-73.143q0-14.857 10.857-25.714t25.714-10.857h438.857q14.857 0 25.714 10.857t10.857 25.714zM950.856 438.857q0-119.429-58.857-220.286t-159.714-159.714-220.286-58.857-220.286 58.857-159.714 159.714-58.857 220.286 58.857 220.286 159.714 159.714 220.286 58.857 220.286-58.857 159.714-159.714 58.857-220.286z" />
<glyph unicode="&#xe03e;" glyph-name="plus-square" d="M804.571 402.286v73.143q0 14.857-10.857 25.714t-25.714 10.857h-182.857v182.857q0 14.857-10.857 25.714t-25.714 10.857h-73.143q-14.857 0-25.714-10.857t-10.857-25.714v-182.857h-182.857q-14.857 0-25.714-10.857t-10.857-25.714v-73.143q0-14.857 10.857-25.714t25.714-10.857h182.857v-182.857q0-14.857 10.857-25.714t25.714-10.857h73.143q14.857 0 25.714 10.857t10.857 25.714v182.857h182.857q14.857 0 25.714 10.857t10.857 25.714zM950.856 713.143v-548.571q0-68-48.286-116.286t-116.286-48.286h-548.571q-68 0-116.286 48.286t-48.286 116.286v548.571q0 68 48.286 116.286t116.286 48.286h548.571q68 0 116.286-48.286t48.286-116.286z" />
<glyph unicode="&#xe03f;" glyph-name="minus-square" d="M804.571 402.286v73.143q0 14.857-10.857 25.714t-25.714 10.857h-512q-14.857 0-25.714-10.857t-10.857-25.714v-73.143q0-14.857 10.857-25.714t25.714-10.857h512q14.857 0 25.714 10.857t10.857 25.714zM950.856 713.143v-548.571q0-68-48.286-116.286t-116.286-48.286h-548.571q-68 0-116.286 48.286t-48.286 116.286v548.571q0 68 48.286 116.286t116.286 48.286h548.571q68 0 116.286-48.286t48.286-116.286z" />
<glyph unicode="&#xe040;" glyph-name="plus-square-o" d="M767.999 457.143v-36.571q0-8-5.143-13.143t-13.143-5.143h-201.143v-201.143q0-8-5.143-13.143t-13.143-5.143h-36.571q-8 0-13.143 5.143t-5.143 13.143v201.143h-201.143q-8 0-13.143 5.143t-5.143 13.143v36.571q0 8 5.143 13.143t13.143 5.143h201.143v201.143q0 8 5.143 13.143t13.143 5.143h36.571q8 0 13.143-5.143t5.143-13.143v-201.143h201.143q8 0 13.143-5.143t5.143-13.143zM841.142 201.143v475.429q0 37.714-26.857 64.571t-64.571 26.857h-475.429q-37.714 0-64.571-26.857t-26.857-64.571v-475.429q0-37.714 26.857-64.571t64.571-26.857h475.429q37.714 0 64.571 26.857t26.857 64.571zM914.284 676.572v-475.429q0-68-48.286-116.286t-116.286-48.286h-475.429q-68 0-116.286 48.286t-48.286 116.286v475.429q0 68 48.286 116.286t116.286 48.286h475.429q68 0 116.286-48.286t48.286-116.286z" />
<glyph unicode="&#xe041;" glyph-name="minus-square-o" d="M767.999 457.143v-36.571q0-8-5.143-13.143t-13.143-5.143h-475.429q-8 0-13.143 5.143t-5.143 13.143v36.571q0 8 5.143 13.143t13.143 5.143h475.429q8 0 13.143-5.143t5.143-13.143zM841.142 201.143v475.429q0 37.714-26.857 64.571t-64.571 26.857h-475.429q-37.714 0-64.571-26.857t-26.857-64.571v-475.429q0-37.714 26.857-64.571t64.571-26.857h475.429q37.714 0 64.571 26.857t26.857 64.571zM914.284 676.572v-475.429q0-68-48.286-116.286t-116.286-48.286h-475.429q-68 0-116.286 48.286t-48.286 116.286v475.429q0 68 48.286 116.286t116.286 48.286h475.429q68 0 116.286-48.286t48.286-116.286z" />
<glyph unicode="&#xe042;" glyph-name="bars" d="M950.856 182.857v-73.143q0-14.857-10.857-25.714t-25.714-10.857h-804.571q-14.857 0-25.714 10.857t-10.857 25.714v73.143q0 14.857 10.857 25.714t25.714 10.857h804.571q14.857 0 25.714-10.857t10.857-25.714zM950.856 475.428v-73.143q0-14.857-10.857-25.714t-25.714-10.857h-804.571q-14.857 0-25.714 10.857t-10.857 25.714v73.143q0 14.857 10.857 25.714t25.714 10.857h804.571q14.857 0 25.714-10.857t10.857-25.714zM950.856 768v-73.143q0-14.857-10.857-25.714t-25.714-10.857h-804.571q-14.857 0-25.714 10.857t-10.857 25.714v73.143q0 14.857 10.857 25.714t25.714 10.857h804.571q14.857 0 25.714-10.857t10.857-25.714z" />
<glyph unicode="&#xe043;" glyph-name="tachometer" d="M219.429 329.142q0 30.286-21.429 51.714t-51.714 21.429-51.714-21.429-21.429-51.714 21.429-51.714 51.714-21.429 51.714 21.429 21.429 51.714zM329.143 585.142q0 30.286-21.429 51.714t-51.714 21.429-51.714-21.429-21.429-51.714 21.429-51.714 51.714-21.429 51.714 21.429 21.429 51.714zM573.714 310.285l57.714 218.286q3.429 14.857-4.286 27.714t-22 16.857-27.429-3.714-17.143-22.571l-57.714-218.286q-34.286-2.857-61.143-24.857t-36-56.286q-11.429-44 11.429-83.429t66.857-50.857 83.429 11.429 50.857 66.857q9.143 34.286-3.429 66.857t-41.143 52zM950.857 329.142q0 30.286-21.429 51.714t-51.714 21.429-51.714-21.429-21.429-51.714 21.429-51.714 51.714-21.429 51.714 21.429 21.429 51.714zM585.143 694.857q0 30.286-21.429 51.714t-51.714 21.429-51.714-21.429-21.429-51.714 21.429-51.714 51.714-21.429 51.714 21.429 21.429 51.714zM841.143 585.142q0 30.286-21.429 51.714t-51.714 21.429-51.714-21.429-21.429-51.714 21.429-51.714 51.714-21.429 51.714 21.429 21.429 51.714zM1024 329.142q0-149.143-80.571-276-10.857-16.571-30.857-16.571h-801.143q-20 0-30.857 16.571-80.571 126.286-80.571 276 0 104 40.571 198.857t109.143 163.429 163.429 109.143 198.857 40.571 198.857-40.571 163.429-109.143 109.143-163.429 40.571-198.857z" />
<glyph unicode="&#xe044;" glyph-name="cog" d="M73.152 376.585v126.848q0 6.848 4.576 13.152t10.848 7.424l106.272 16q8 26.272 22.272 52.576-22.848 32.576-61.152 78.848-5.728 6.848-5.728 13.728 0 5.728 5.152 13.152 14.848 20.576 56.288 61.44t54.016 40.864q7.424 0 14.848-5.728l78.848-61.152q25.152 13.152 52 21.728 9.152 77.728 16.576 106.272 4 16 20.576 16h126.848q8 0 14.016-4.864t6.56-12.288l16-105.152q28-9.152 51.424-21.152l81.152 61.152q5.152 5.152 13.728 5.152 7.424 0 14.272-5.728 73.728-68 94.272-97.152 4-4.576 4-12.576 0-6.848-4.576-13.152-8.576-12-29.152-38.016t-30.848-40.288q14.848-28.576 23.424-56l104.576-16q7.424-1.152 12-7.136t4.576-13.44v-126.848q0-6.848-4.576-13.152t-11.424-7.424l-105.728-16q-10.848-30.848-22.272-52 20-28.576 61.152-78.848 5.728-6.848 5.728-14.272t-5.152-13.152q-15.424-21.152-56.576-61.728t-53.728-40.576q-6.848 0-14.848 5.152l-78.848 61.728q-25.152-13.152-52-21.728-9.152-77.728-16.576-106.272-4-16-20.576-16h-126.848q-8 0-14.016 4.864t-6.56 12.288l-16 105.152q-28 9.152-51.424 21.152l-80.576-61.152q-5.728-5.152-14.272-5.152-8 0-14.272 6.272-72 65.152-94.272 96-4 5.728-4 13.152 0 6.848 4.576 13.152 8.576 12 29.152 38.016t30.848 40.288q-15.424 28.576-23.424 56.576l-104.576 15.424q-7.424 1.152-12 7.136t-4.576 13.44zM365.728 438.857q0-60.576 42.848-103.424t103.424-42.848 103.424 42.848 42.848 103.424-42.848 103.424-103.424 42.848-103.424-42.848-42.848-103.424z" />
<glyph unicode="&#xe045;" glyph-name="cogs" horiz-adv-x="1097" d="M512 438.857q0 60.571-42.857 103.429t-103.429 42.857-103.429-42.857-42.857-103.429 42.857-103.429 103.429-42.857 103.429 42.857 42.857 103.429zM950.857 146.286q0 29.714-21.714 51.429t-51.429 21.714-51.429-21.714-21.714-51.429q0-30.286 21.429-51.714t51.714-21.429 51.714 21.429 21.429 51.714zM950.857 731.428q0 29.714-21.714 51.429t-51.429 21.714-51.429-21.714-21.714-51.429q0-30.286 21.429-51.714t51.714-21.429 51.714 21.429 21.429 51.714zM731.429 490.857v-105.714q0-5.714-4-11.143t-9.143-6l-88.571-13.714q-6.286-20-18.286-43.429 19.429-27.429 51.429-65.714 4-5.714 4-11.429 0-6.857-4-10.857-13.143-17.143-47.143-51.143t-44.857-34q-6.286 0-12 4l-65.714 51.429q-21.143-10.857-44-17.714-6.286-61.714-13.143-88.571-4-13.714-17.143-13.714h-106.286q-6.286 0-11.429 4.286t-5.714 10l-13.143 87.429q-19.429 5.714-42.857 17.714l-67.429-50.857q-4-4-11.429-4-6.286 0-12 4.571-82.286 76-82.286 91.429 0 5.143 4 10.857 5.714 8 23.429 30.286t26.857 34.857q-13.143 25.143-20 46.857l-86.857 13.714q-5.714 0.571-9.714 5.429t-4 11.143v105.714q0 5.714 4 11.143t9.143 6l88.571 13.714q6.286 20 18.286 43.429-19.429 27.429-51.429 65.714-4 6.286-4 11.429 0 6.857 4 11.429 12.571 17.143 46.857 50.857t45.143 33.714q6.286 0 12-4l65.714-51.429q19.429 10.286 44 18.286 6.286 61.714 13.143 88 4 13.714 17.143 13.714h106.286q6.286 0 11.429-4.286t5.714-10l13.143-87.429q19.429-5.714 42.857-17.714l67.429 50.857q4.571 4 11.429 4 6.286 0 12-4.571 82.286-76 82.286-91.429 0-5.143-4-10.857-6.857-9.143-24-30.857t-25.714-34.286q13.143-27.429 19.429-46.857l86.857-13.143q5.714-1.143 9.714-6t4-11.143zM1097.143 186.286v-80q0-9.143-85.143-17.714-6.857-15.429-17.143-29.714 29.143-64.571 29.143-78.857 0-2.286-2.286-4-69.714-40.571-70.857-40.571-4.571 0-26.286 26.857t-29.714 38.857q-11.429-1.143-17.143-1.143t-17.143 1.143q-8-12-29.714-38.857t-26.286-26.857q-1.143 0-70.857 40.571-2.286 1.714-2.286 4 0 14.286 29.143 78.857-10.286 14.286-17.143 29.714-85.143 8.571-85.143 17.714v80q0 9.143 85.143 17.714 7.429 16.571 17.143 29.714-29.143 64.571-29.143 78.857 0 2.286 2.286 4 2.286 1.143 20 11.429t33.714 19.429 17.143 9.143q4.571 0 26.286-26.571t29.714-38.571q11.429 1.143 17.143 1.143t17.143-1.143q29.143 40.571 52.571 64l3.429 1.143q2.286 0 70.857-40 2.286-1.714 2.286-4 0-14.286-29.143-78.857 9.714-13.143 17.143-29.714 85.143-8.571 85.143-17.714zM1097.143 771.428v-80q0-9.143-85.143-17.714-6.857-15.429-17.143-29.714 29.143-64.571 29.143-78.857 0-2.286-2.286-4-69.714-40.571-70.857-40.571-4.571 0-26.286 26.857t-29.714 38.857q-11.429-1.143-17.143-1.143t-17.143 1.143q-8-12-29.714-38.857t-26.286-26.857q-1.143 0-70.857 40.571-2.286 1.714-2.286 4 0 14.286 29.143 78.857-10.286 14.286-17.143 29.714-85.143 8.571-85.143 17.714v80q0 9.143 85.143 17.714 7.429 16.571 17.143 29.714-29.143 64.571-29.143 78.857 0 2.286 2.286 4 2.286 1.143 20 11.429t33.714 19.429 17.143 9.143q4.571 0 26.286-26.571t29.714-38.571q11.429 1.143 17.143 1.143t17.143-1.143q29.143 40.571 52.571 64l3.429 1.143q2.286 0 70.857-40 2.286-1.714 2.286-4 0-14.286-29.143-78.857 9.714-13.143 17.143-29.714 85.143-8.571 85.143-17.714z" />
<glyph unicode="&#xe046;" glyph-name="wrench" d="M43.424 102.857c0 20.128 7.328 37.472 21.728 52.128l389.024 389.024c14.848-37.248 36.576-70.4 65.376-99.2s61.728-50.528 99.2-65.376l-389.728-389.728c-14.176-14.176-31.328-21.024-51.424-21.024-19.872 0-37.024 7.072-52.128 21.024l-60.576 61.728c-14.176 13.728-21.472 30.848-21.472 51.424zM177.824 139.433c0-9.824 3.648-18.528 10.976-25.6 7.328-7.328 15.776-10.976 25.6-10.976s18.528 3.648 25.6 10.976c7.328 7.328 10.976 15.776 10.976 25.6s-3.648 18.528-10.976 25.6c-7.328 7.328-15.776 10.976-25.6 10.976s-18.528-3.648-25.6-10.976c-7.552-7.072-10.976-15.776-10.976-25.6zM470.4 651.433c0 70.4 25.152 130.752 75.2 180.8s110.4 75.2 180.8 75.2c22.176 0 45.248-3.2 69.472-9.376s44.576-15.072 61.472-26.528c6.176-4.128 9.152-9.6 9.152-16s-2.976-11.872-9.152-16l-167.328-96.448v-128l110.176-61.248c1.824 1.152 16.928 10.272 45.248 27.648s53.952 32.672 77.472 46.176 36.8 20.352 40.224 20.352c5.728 0 10.272-1.824 13.472-5.728s4.8-8.672 4.8-14.176c0-14.848-4.352-34.976-13.248-60.576-17.824-50.976-49.152-92.576-93.952-124.352s-93.952-47.776-147.648-47.776c-70.4 0-130.752 25.152-180.8 75.2s-75.424 110.4-75.424 180.8z" />
<glyph unicode="&#xe047;" glyph-name="sort" d="M219.424 329.129c0 9.824 3.648 18.528 10.976 25.6 7.328 7.328 15.776 10.976 25.6 10.976h512c9.824 0 18.528-3.648 25.6-10.976 7.328-7.328 10.976-15.776 10.976-25.6s-3.648-18.528-10.976-25.6l-256-256c-7.328-7.328-15.776-10.976-25.6-10.976s-18.528 3.648-25.6 10.976l-256 256c-7.328 7.072-10.976 15.776-10.976 25.6zM219.424 548.585c0 9.824 3.648 18.528 10.976 25.6l256 256c7.328 7.328 15.776 10.976 25.6 10.976s18.528-3.648 25.6-10.976l256-256c7.328-7.328 10.976-15.776 10.976-25.6s-3.648-18.528-10.976-25.6c-7.328-7.328-15.776-10.976-25.6-10.976h-512c-9.824 0-18.528 3.648-25.6 10.976-7.328 7.072-10.976 15.776-10.976 25.6z" />
<glyph unicode="&#xe048;" glyph-name="sort-desc" d="M219.424 329.129c0 9.824 3.648 18.528 10.976 25.6 7.328 7.328 15.776 10.976 25.6 10.976h512c9.824 0 18.528-3.648 25.6-10.976 7.328-7.328 10.976-15.776 10.976-25.6s-3.648-18.528-10.976-25.6l-256-256c-7.328-7.328-15.776-10.976-25.6-10.976s-18.528 3.648-25.6 10.976l-256 256c-7.328 7.072-10.976 15.776-10.976 25.6z" />
<glyph unicode="&#xe049;" glyph-name="sort-asc" d="M219.424 548.585c0 9.824 3.648 18.528 10.976 25.6l256 256c7.328 7.328 15.776 10.976 25.6 10.976s18.528-3.648 25.6-10.976l256-256c7.328-7.328 10.976-15.776 10.976-25.6s-3.648-18.528-10.976-25.6c-7.328-7.328-15.776-10.976-25.6-10.976h-512c-9.824 0-18.528 3.648-25.6 10.976-7.328 7.072-10.976 15.776-10.976 25.6z" />
<glyph unicode="&#xe04a;" glyph-name="sort-alpha-asc" d="M680.571 717.714h101.143l-41.143 124.571-6.857 26.857q-1.143 9.143-1.143 11.429h-2.286l-1.714-11.429q0-0.571-2-10.286t-4.286-16.571zM420.571 128q0-6.857-5.714-13.714l-182.286-182.286q-5.714-5.143-13.143-5.143-6.857 0-13.143 5.143l-182.857 182.857q-8.571 9.143-4 20 4.571 11.429 17.143 11.429h109.714v786.286q0 8 5.143 13.143t13.143 5.143h109.714q8 0 13.143-5.143t5.143-13.143v-786.286h109.714q8 0 13.143-5.143t5.143-13.143zM898.286 60v-133.143h-333.714v51.429l210.857 302.286q6.857 10.286 12 15.429l6.286 5.143v1.714q-1.143 0-3.714-0.286t-4.286-0.286q-6.857-1.714-17.143-1.714h-132.571v-65.714h-68.571v130.857h324v-50.857l-210.857-302.857q-3.429-4.571-12-14.857l-6.286-6.286v-1.143l8 1.143q5.143 1.143 17.143 1.143h141.714v68h69.143zM949.143 572.571v-60.571h-164.571v60.571h42.857l-26.857 82.286h-138.857l-26.857-82.286h42.857v-60.571h-164v60.571h40l131.429 378.286h92.571l131.429-378.286h40z" />
<glyph unicode="&#xe04b;" glyph-name="sort-alpha-desc" d="M680.571 132.571h101.143l-41.143 124.571-6.857 26.857q-1.143 9.143-1.143 11.429h-2.286l-1.714-11.429q0-0.571-2-10.286t-4.286-16.571zM420.571 128q0-6.857-5.714-13.714l-182.286-182.286q-5.714-5.143-13.143-5.143-6.857 0-13.143 5.143l-182.857 182.857q-8.571 9.143-4 20 4.571 11.429 17.143 11.429h109.714v786.286q0 8 5.143 13.143t13.143 5.143h109.714q8 0 13.143-5.143t5.143-13.143v-786.286h109.714q8 0 13.143-5.143t5.143-13.143zM949.143-12.572v-60.571h-164.571v60.571h42.857l-26.857 82.286h-138.857l-26.857-82.286h42.857v-60.571h-164v60.571h40l131.429 378.286h92.571l131.429-378.286h40zM898.286 645.143v-133.143h-333.714v51.429l210.857 302.286q6.857 10.286 12 15.429l6.286 5.143v1.714q-1.143 0-3.714-0.286t-4.286-0.286q-6.857-1.714-17.143-1.714h-132.571v-65.714h-68.571v130.857h324v-50.857l-210.857-302.857q-3.429-4.571-12-14.857l-6.286-5.714v-1.714l8 1.714q5.143 0.571 17.143 0.571h141.714v68h69.143z" />
<glyph unicode="&#xe04c;" glyph-name="sort-amount-asc" d="M420.571 128q0-6.857-5.714-13.714l-182.286-182.286q-5.714-5.143-13.143-5.143-6.857 0-13.143 5.143l-182.857 182.857q-8.571 9.143-4 20 4.571 11.429 17.143 11.429h109.714v786.286q0 8 5.143 13.143t13.143 5.143h109.714q8 0 13.143-5.143t5.143-13.143v-786.286h109.714q8 0 13.143-5.143t5.143-13.143zM1024 54.857v-109.714q0-8-5.143-13.143t-13.143-5.143h-475.429q-8 0-13.143 5.143t-5.143 13.143v109.714q0 8 5.143 13.143t13.143 5.143h475.429q8 0 13.143-5.143t5.143-13.143zM914.286 347.428v-109.714q0-8-5.143-13.143t-13.143-5.143h-365.714q-8 0-13.143 5.143t-5.143 13.143v109.714q0 8 5.143 13.143t13.143 5.143h365.714q8 0 13.143-5.143t5.143-13.143zM804.571 640v-109.714q0-8-5.143-13.143t-13.143-5.143h-256q-8 0-13.143 5.143t-5.143 13.143v109.714q0 8 5.143 13.143t13.143 5.143h256q8 0 13.143-5.143t5.143-13.143zM694.857 932.571v-109.714q0-8-5.143-13.143t-13.143-5.143h-146.286q-8 0-13.143 5.143t-5.143 13.143v109.714q0 8 5.143 13.143t13.143 5.143h146.286q8 0 13.143-5.143t5.143-13.143z" />
<glyph unicode="&#xe04d;" glyph-name="sort-amount-desc" d="M694.857 54.857v-109.714q0-8-5.143-13.143t-13.143-5.143h-146.286q-8 0-13.143 5.143t-5.143 13.143v109.714q0 8 5.143 13.143t13.143 5.143h146.286q8 0 13.143-5.143t5.143-13.143zM420.571 128q0-6.857-5.714-13.714l-182.286-182.286q-5.714-5.143-13.143-5.143-6.857 0-13.143 5.143l-182.857 182.857q-8.571 9.143-4 20 4.571 11.429 17.143 11.429h109.714v786.286q0 8 5.143 13.143t13.143 5.143h109.714q8 0 13.143-5.143t5.143-13.143v-786.286h109.714q8 0 13.143-5.143t5.143-13.143zM804.571 347.428v-109.714q0-8-5.143-13.143t-13.143-5.143h-256q-8 0-13.143 5.143t-5.143 13.143v109.714q0 8 5.143 13.143t13.143 5.143h256q8 0 13.143-5.143t5.143-13.143zM914.286 640v-109.714q0-8-5.143-13.143t-13.143-5.143h-365.714q-8 0-13.143 5.143t-5.143 13.143v109.714q0 8 5.143 13.143t13.143 5.143h365.714q8 0 13.143-5.143t5.143-13.143zM1024 932.571v-109.714q0-8-5.143-13.143t-13.143-5.143h-475.429q-8 0-13.143 5.143t-5.143 13.143v109.714q0 8 5.143 13.143t13.143 5.143h475.429q8 0 13.143-5.143t5.143-13.143z" />
<glyph unicode="&#xe04e;" glyph-name="sort-numeric-asc" d="M769.143 200.571q0 36-25.143 66.286t-58.857 30.286q-29.714 0-47.429-21.143t-17.714-53.714 20.857-54.286 59.714-21.714q28.571 0 48.571 15.429t20 38.857zM420.571 128q0-6.857-5.714-13.714l-182.286-182.286q-5.714-5.143-13.143-5.143-6.857 0-13.143 5.143l-182.857 182.857q-8.571 9.143-4 20 4.571 11.429 17.143 11.429h109.714v786.286q0 8 5.143 13.143t13.143 5.143h109.714q8 0 13.143-5.143t5.143-13.143v-786.286h109.714q8 0 13.143-5.143t5.143-13.143zM849.143 167.428q0-35.429-7.429-69.429t-23.429-65.143-38.857-54.571-56.286-37.429-72.857-14q-35.429 0-61.714 9.143-13.714 4.571-24 8.571l22.286 64.571q8.571-4 17.714-6.286 21.143-7.429 42.857-7.429 48 0 76.857 33.429t38 83.143h-1.143q-12-13.143-35.143-21.143t-48.286-8q-60.571 0-98.857 40.857t-38.286 98.571q0 60 41.143 101.714t103.429 41.714q70.286 0 117.143-54t46.857-144.286zM832 577.143v-65.143h-268v65.143h95.429v246.857q0 4 0.286 10.857t0.286 9.714v9.143h-1.143l-4-6.857q-4.571-7.429-14.857-17.714l-35.429-33.143-46.857 49.143 109.714 105.714h70.286v-373.714h94.286z" />
<glyph unicode="&#xe04f;" glyph-name="sort-numeric-desc" d="M769.143 785.714q0 36-25.143 66.286t-58.857 30.286q-29.714 0-47.429-21.143t-17.714-53.714 20.857-54.286 59.714-21.714q28.571 0 48.571 15.429t20 38.857zM420.571 128q0-6.857-5.714-13.714l-182.286-182.286q-5.714-5.143-13.143-5.143-6.857 0-13.143 5.143l-182.857 182.857q-8.571 9.143-4 20 4.571 11.429 17.143 11.429h109.714v786.286q0 8 5.143 13.143t13.143 5.143h109.714q8 0 13.143-5.143t5.143-13.143v-786.286h109.714q8 0 13.143-5.143t5.143-13.143zM832-8v-65.143h-268v65.143h95.429v246.857q0 4 0.286 10.857t0.286 9.714v9.143h-1.143l-4-6.857q-4.571-7.429-14.857-17.714l-35.429-33.143-46.857 49.143 109.714 105.714h70.286v-373.714h94.286zM849.143 752.571q0-35.429-7.429-69.429t-23.429-65.143-38.857-54.571-56.286-37.429-72.857-14q-35.429 0-61.714 9.143-13.714 4.571-24 8.571l22.286 64.571q8.571-4 17.714-6.286 21.143-7.429 42.857-7.429 48 0 76.857 33.429t38 83.143h-1.143q-12-13.143-35.143-21.143t-48.286-8q-60.571 0-98.857 40.857t-38.286 98.571q0 60 41.143 101.714t103.429 41.714q70.286 0 117.143-54t46.857-144.286z" />
<glyph unicode="&#xe050;" glyph-name="filter" d="M113.152 818.985c6.4 14.848 17.6 22.4 33.6 22.4h731.424c16 0 27.2-7.328 33.824-22.4 6.4-15.552 3.872-29.024-8-40l-281.6-281.824v-424c0-16-7.328-27.2-22.4-33.824-5.024-1.824-9.6-2.752-14.176-2.752-10.272 0-18.752 3.648-25.6 10.976l-146.272 146.272c-7.328 7.328-10.976 15.776-10.976 25.6v277.728l-281.824 281.824c-11.872 10.976-14.4 24.224-8 40z" />
<glyph unicode="&#xe051;" glyph-name="flask" d="M103.776 36.329c-13.248 24.224-9.824 53.248 11.648 87.072l286.848 453.248v228.128h-35.2c-9.824 0-18.528 3.648-25.824 10.976s-10.976 15.776-10.976 25.6 3.648 18.528 10.976 25.6 15.776 10.976 25.824 10.976h292.8c9.824 0 18.528-3.648 25.824-10.976s10.976-15.776 10.976-25.6-3.648-18.528-10.976-25.6c-7.328-7.328-15.776-10.976-25.824-10.976h-38.176v-228.128l288.448-453.024c21.248-33.824 25.824-62.848 12.8-87.072-13.248-24.224-39.552-36.352-80-36.352h-658.976c-40.224-0.224-67.2 11.872-80.224 36.128zM309.952 292.585h407.072l-156.352 245.024-12.128 17.824v249.152h-73.152v-249.152l-10.752-17.824-154.752-245.024z" />
<glyph unicode="&#xe052;" glyph-name="sitemap" d="M1024 237.714v-182.857q0-22.857-16-38.857t-38.857-16h-182.857q-22.857 0-38.857 16t-16 38.857v182.857q0 22.857 16 38.857t38.857 16h54.857v109.714h-292.571v-109.714h54.857q22.857 0 38.857-16t16-38.857v-182.857q0-22.857-16-38.857t-38.857-16h-182.857q-22.857 0-38.857 16t-16 38.857v182.857q0 22.857 16 38.857t38.857 16h54.857v109.714h-292.571v-109.714h54.857q22.857 0 38.857-16t16-38.857v-182.857q0-22.857-16-38.857t-38.857-16h-182.857q-22.857 0-38.857 16t-16 38.857v182.857q0 22.857 16 38.857t38.857 16h54.857v109.714q0 29.714 21.714 51.429t51.429 21.714h292.571v109.714h-54.857q-22.857 0-38.857 16t-16 38.857v182.857q0 22.857 16 38.857t38.857 16h182.857q22.857 0 38.857-16t16-38.857v-182.857q0-22.857-16-38.857t-38.857-16h-54.857v-109.714h292.571q29.714 0 51.429-21.714t21.714-51.429v-109.714h54.857q22.857 0 38.857-16t16-38.857z" />
<glyph unicode="&#xe053;" glyph-name="crop" d="M354.857 255.999h340v340zM329.142 281.714l340 340h-340v-340zM987.428 237.714v-109.714q0-8-5.143-13.143t-13.143-5.143h-128v-128q0-8-5.143-13.143t-13.143-5.143h-109.714q-8 0-13.143 5.143t-5.143 13.143v128h-493.714q-8 0-13.143 5.143t-5.143 13.143v493.714h-128q-8 0-13.143 5.143t-5.143 13.143v109.714q0 8 5.143 13.143t13.143 5.143h128v128q0 8 5.143 13.143t13.143 5.143h109.714q8 0 13.143-5.143t5.143-13.143v-128h486.286l140.571 141.143q5.714 5.143 13.143 5.143t13.143-5.143q5.143-5.714 5.143-13.143t-5.143-13.143l-141.143-140.571v-486.286h128q8 0 13.143-5.143t5.143-13.143z" />
<glyph unicode="&#xe054;" glyph-name="toggle-off" horiz-adv-x="1170" d="M658.286 438.857q0 59.429-23.143 113.429t-62.571 93.429-93.429 62.571-113.429 23.143-113.429-23.143-93.429-62.571-62.571-93.429-23.143-113.429 23.143-113.429 62.571-93.429 93.429-62.571 113.429-23.143 113.429 23.143 93.429 62.571 62.571 93.429 23.143 113.429zM1097.143 438.857q0 59.429-23.143 113.429t-62.571 93.429-93.429 62.571-113.429 23.143h-220.571q68-51.429 107.714-128t39.714-164.571-39.714-164.571-107.714-128h220.571q59.429 0 113.429 23.143t93.429 62.571 62.571 93.429 23.143 113.429zM1170.286 438.857q0-74.286-29.143-142t-78-116.571-116.571-78-142-29.143h-438.857q-74.286 0-142 29.143t-116.571 78-78 116.571-29.143 142 29.143 142 78 116.571 116.571 78 142 29.143h438.857q74.286 0 142-29.143t116.571-78 78-116.571 29.143-142z" />
<glyph unicode="&#xe055;" glyph-name="toggle-on" horiz-adv-x="1170" d="M0 438.857q0 74.286 29.143 142t78 116.571 116.571 78 142 29.143h438.857q74.286 0 142-29.143t116.571-78 78-116.571 29.143-142-29.143-142-78-116.571-116.571-78-142-29.143h-438.857q-74.286 0-142 29.143t-116.571 78-78 116.571-29.143 142zM804.571 146.286q59.429 0 113.429 23.143t93.429 62.571 62.571 93.429 23.143 113.429-23.143 113.429-62.571 93.429-93.429 62.571-113.429 23.143-113.429-23.143-93.429-62.571-62.571-93.429-23.143-113.429 23.143-113.429 62.571-93.429 93.429-62.571 113.429-23.143z" />
<glyph unicode="&#xe056;" glyph-name="download" d="M768 109.715q0 14.857-10.857 25.714t-25.714 10.857-25.714-10.857-10.857-25.714 10.857-25.714 25.714-10.857 25.714 10.857 10.857 25.714zM914.285 109.715q0 14.857-10.857 25.714t-25.714 10.857-25.714-10.857-10.857-25.714 10.857-25.714 25.714-10.857 25.714 10.857 10.857 25.714zM987.428 237.715v-182.857q0-22.857-16-38.857t-38.857-16h-841.143q-22.857 0-38.857 16t-16 38.857v182.857q0 22.857 16 38.857t38.857 16h265.714l77.143-77.714q33.143-32 77.714-32t77.714 32l77.714 77.714h265.143q22.857 0 38.857-16t16-38.857zM801.714 562.858q9.714-23.429-8-40l-256-256q-10.286-10.857-25.714-10.857t-25.714 10.857l-256 256q-17.714 16.571-8 40 9.714 22.286 33.714 22.286h146.286v256q0 14.857 10.857 25.714t25.714 10.857h146.286q14.857 0 25.714-10.857t10.857-25.714v-256h146.286q24 0 33.714-22.286z" />
<glyph unicode="&#xe057;" glyph-name="upload" d="M768 109.714q0 14.857-10.857 25.714t-25.714 10.857-25.714-10.857-10.857-25.714 10.857-25.714 25.714-10.857 25.714 10.857 10.857 25.714zM914.285 109.714q0 14.857-10.857 25.714t-25.714 10.857-25.714-10.857-10.857-25.714 10.857-25.714 25.714-10.857 25.714 10.857 10.857 25.714zM987.428 237.714v-182.857q0-22.857-16-38.857t-38.857-16h-841.143q-22.857 0-38.857 16t-16 38.857v182.857q0 22.857 16 38.857t38.857 16h244q12-32 40.286-52.571t63.143-20.571h146.286q34.857 0 63.143 20.571t40.286 52.571h244q22.857 0 38.857-16t16-38.857zM801.714 608q-9.714-22.857-33.714-22.857h-146.286v-256q0-14.857-10.857-25.714t-25.714-10.857h-146.286q-14.857 0-25.714 10.857t-10.857 25.714v256h-146.286q-24 0-33.714 22.857-9.714 22.286 8 39.429l256 256q10.286 10.857 25.714 10.857t25.714-10.857l256-256q17.714-17.143 8-39.429z" />
<glyph unicode="&#xe058;" glyph-name="inbox" d="M657.713 402.286h180.571q-0.571 1.714-1.429 4.571t-1.429 4.571l-121.143 283.429h-404.571l-121.143-283.429q-0.571-1.143-1.429-4.571t-1.429-4.571h180.571l54.286-109.714h182.857zM950.856 385.143v-275.429q0-14.857-10.857-25.714t-25.714-10.857h-804.571q-14.857 0-25.714 10.857t-10.857 25.714v275.429q0 35.429 14.286 70.286l136 315.429q5.714 14.286 20.857 24t30 9.714h475.429q14.857 0 30-9.714t20.857-24l136-315.429q14.286-34.857 14.286-70.286z" />
<glyph unicode="&#xe059;" glyph-name="archive" d="M621.714 475.428q0 14.857-10.857 25.714t-25.714 10.857h-146.286q-14.857 0-25.714-10.857t-10.857-25.714 10.857-25.714 25.714-10.857h146.286q14.857 0 25.714 10.857t10.857 25.714zM950.857 585.143v-548.571q0-14.857-10.857-25.714t-25.714-10.857h-804.571q-14.857 0-25.714 10.857t-10.857 25.714v548.571q0 14.857 10.857 25.714t25.714 10.857h804.571q14.857 0 25.714-10.857t10.857-25.714zM987.429 841.143v-146.286q0-14.857-10.857-25.714t-25.714-10.857h-877.714q-14.857 0-25.714 10.857t-10.857 25.714v146.286q0 14.857 10.857 25.714t25.714 10.857h877.714q14.857 0 25.714-10.857t10.857-25.714z" />
<glyph unicode="&#xe05a;" glyph-name="retweet" horiz-adv-x="1097" d="M0 512.009q0 13.728 8.576 23.424l182.848 219.424q10.848 12.576 28 12.576t28-12.576l182.848-219.424q8.576-9.728 8.576-23.424 0-14.848-10.848-25.728t-25.728-10.848h-109.728v-219.424h329.152q9.152 0 14.272-6.272l91.424-109.728q4-6.272 4-12 0-7.424-5.44-12.864t-12.864-5.44h-548.576q-4.576 0-7.712 1.152t-5.152 4-3.136 4.576-1.728 6.56-0.576 6.56v342.848h-109.728q-14.848 0-25.728 10.848t-10.848 25.728zM365.728 749.705q0 7.424 5.44 12.864t12.864 5.44h548.576q4.576 0 7.712-1.152t5.152-4 3.136-4.576 1.728-6.56 0.576-6.56v-342.848h109.728q14.848 0 25.728-10.848t10.848-25.728q0-13.728-8.576-23.424l-182.848-219.424q-11.424-13.152-28-13.152t-28 13.152l-182.848 219.424q-8.576 9.728-8.576 23.424 0 14.848 10.848 25.728t25.728 10.848h109.728v219.424h-329.152q-9.152 0-14.272 6.848l-91.424 109.728q-4 5.152-4 11.424z" />
<glyph unicode="&#xe05b;" glyph-name="repeat" d="M950.856 804.571v-256q0-14.857-10.857-25.714t-25.714-10.857h-256q-24 0-33.714 22.857-9.714 22.286 8 39.429l78.857 78.857q-84.571 78.286-199.429 78.286-59.429 0-113.429-23.143t-93.429-62.571-62.571-93.429-23.143-113.429 23.143-113.429 62.571-93.429 93.429-62.571 113.429-23.143q68 0 128.571 29.714t102.286 84q4 5.714 13.143 6.857 8 0 14.286-5.143l78.286-78.857q5.143-4.571 5.429-11.714t-4.286-12.857q-62.286-75.429-150.857-116.857t-186.857-41.429q-89.143 0-170.286 34.857t-140 93.714-93.714 140-34.857 170.286 34.857 170.286 93.714 140 140 93.714 170.286 34.857q84 0 162.571-31.714t139.714-89.429l74.286 73.714q16.571 17.714 40 8 22.286-9.714 22.286-33.714z" />
<glyph unicode="&#xe05c;" glyph-name="undo" d="M73.152 548.585v256q0 24 22.848 33.728 22.272 9.728 39.424-8l74.272-73.728q61.152 57.728 139.712 89.44t162.56 31.712q89.152 0 170.272-34.848t140-93.728 93.728-140 34.848-170.272-34.848-170.272-93.728-140-140-93.728-170.272-34.848q-98.272 0-186.848 41.44t-150.848 116.864q-4 5.728-3.712 12.864t4.864 11.712l78.272 78.848q5.728 5.152 14.272 5.152 9.152-1.152 13.152-6.848 41.728-54.272 102.272-84t128.576-29.728q59.424 0 113.44 23.136t93.44 62.56 62.56 93.44 23.136 113.44-23.136 113.44-62.56 93.44-93.44 62.56-113.44 23.136q-56 0-107.424-20.288t-91.424-58.016l78.272-78.848q17.728-17.152 8-39.424-9.728-22.848-33.728-22.848h-256q-14.848 0-25.728 10.848t-10.848 25.728z" />
<glyph unicode="&#xe05d;" glyph-name="refresh" d="M936.571 347.428q0-2.857-0.571-4-36.571-153.143-153.143-248.286t-273.143-95.143q-83.429 0-161.429 31.429t-139.143 89.714l-73.714-73.714q-10.857-10.857-25.714-10.857t-25.714 10.857-10.857 25.714v256q0 14.857 10.857 25.714t25.714 10.857h256q14.857 0 25.714-10.857t10.857-25.714-10.857-25.714l-78.286-78.286q40.571-37.714 92-58.286t106.857-20.571q76.571 0 142.857 37.143t106.286 102.286q6.286 9.714 30.286 66.857 4.571 13.143 17.143 13.143h109.714q7.429 0 12.857-5.429t5.429-12.857zM950.856 804.571v-256q0-14.857-10.857-25.714t-25.714-10.857h-256q-14.857 0-25.714 10.857t-10.857 25.714 10.857 25.714l78.857 78.857q-84.571 78.286-199.429 78.286-76.571 0-142.857-37.143t-106.286-102.286q-6.286-9.714-30.286-66.857-4.571-13.143-17.143-13.143h-113.714q-7.429 0-12.857 5.429t-5.429 12.857v4q37.143 153.143 154.286 248.286t274.286 95.143q83.429 0 162.286-31.714t140-89.429l74.286 73.714q10.857 10.857 25.714 10.857t25.714-10.857 10.857-25.714z" />
<glyph unicode="&#xe05e;" glyph-name="circle-o-notch" d="M1024 438.857q0-104-40.571-198.857t-109.143-163.429-163.429-109.143-198.857-40.571-198.857 40.571-163.429 109.143-109.143 163.429-40.571 198.857q0 126.857 57.714 236.857t158 181.143 223.143 88.857v-148.571q-126.286-25.714-209.429-126.286t-83.143-232q0-74.286 29.143-142t78-116.571 116.571-78 142-29.143 142 29.143 116.571 78 78 116.571 29.143 142q0 131.429-83.143 232t-209.429 126.286v148.571q122.857-17.714 223.143-88.857t158-181.143 57.714-236.857z" />
<glyph unicode="&#xe05f;" glyph-name="clock-o" d="M585.142 640v-256q0-8-5.143-13.143t-13.143-5.143h-182.857q-8 0-13.143 5.143t-5.143 13.143v36.571q0 8 5.143 13.143t13.143 5.143h128v201.143q0 8 5.143 13.143t13.143 5.143h36.571q8 0 13.143-5.143t5.143-13.143zM822.856 438.857q0 84.571-41.714 156t-113.143 113.143-156 41.714-156-41.714-113.143-113.143-41.714-156 41.714-156 113.143-113.143 156-41.714 156 41.714 113.143 113.143 41.714 156zM950.856 438.857q0-119.429-58.857-220.286t-159.714-159.714-220.286-58.857-220.286 58.857-159.714 159.714-58.857 220.286 58.857 220.286 159.714 159.714 220.286 58.857 220.286-58.857 159.714-159.714 58.857-220.286z" />
<glyph unicode="&#xe060;" glyph-name="history" d="M950.856 438.857q0-89.143-34.857-170.286t-93.714-140-140-93.714-170.286-34.857q-98.286 0-186.857 41.429t-150.857 116.857q-4 5.714-3.714 12.857t4.857 11.714l78.286 78.857q5.714 5.143 14.286 5.143 9.143-1.143 13.143-6.857 41.714-54.286 102.286-84t128.571-29.714q59.429 0 113.429 23.143t93.429 62.571 62.571 93.429 23.143 113.429-23.143 113.429-62.571 93.429-93.429 62.571-113.429 23.143q-56 0-107.429-20.286t-91.429-58l78.286-78.857q17.714-17.143 8-39.429-9.714-22.857-33.714-22.857h-256q-14.857 0-25.714 10.857t-10.857 25.714v256q0 24 22.857 33.714 22.286 9.714 39.429-8l74.286-73.714q61.143 57.714 139.714 89.429t162.571 31.714q89.143 0 170.286-34.857t140-93.714 93.714-140 34.857-170.286zM585.142 603.428v-256q0-8-5.143-13.143t-13.143-5.143h-182.857q-8 0-13.143 5.143t-5.143 13.143v36.571q0 8 5.143 13.143t13.143 5.143h128v201.143q0 8 5.143 13.143t13.143 5.143h36.571q8 0 13.143-5.143t5.143-13.143z" />
<glyph unicode="&#xe061;" glyph-name="calendar" d="M36.576 0.009v731.424q0 29.728 21.728 51.424t51.424 21.728h73.152v54.848q0 37.728 26.848 64.576t64.576 26.848h36.576q37.728 0 64.576-26.848t26.848-64.576v-54.848h219.424v54.848q0 37.728 26.848 64.576t64.576 26.848h36.576q37.728 0 64.576-26.848t26.848-64.576v-54.848h73.152q29.728 0 51.424-21.728t21.728-51.424v-731.424q0-29.728-21.728-51.424t-51.424-21.728h-804.576q-29.728 0-51.424 21.728t-21.728 51.424zM109.728 0.009h164.576v164.576h-164.576v-164.576zM109.728 201.129h164.576v182.848h-164.576v-182.848zM109.728 420.585h164.576v164.576h-164.576v-164.576zM256 694.857q0-7.424 5.44-12.864t12.864-5.44h36.576q7.424 0 12.864 5.44t5.44 12.864v164.576q0 7.424-5.44 12.864t-12.864 5.44h-36.576q-7.424 0-12.864-5.44t-5.44-12.864v-164.576zM310.848 0.009h182.848v164.576h-182.848v-164.576zM310.848 201.129h182.848v182.848h-182.848v-182.848zM310.848 420.585h182.848v164.576h-182.848v-164.576zM530.272 0.009h182.848v164.576h-182.848v-164.576zM530.272 201.129h182.848v182.848h-182.848v-182.848zM530.272 420.585h182.848v164.576h-182.848v-164.576zM694.848 694.857q0-7.424 5.44-12.864t12.864-5.44h36.576q7.424 0 12.864 5.44t5.44 12.864v164.576q0 7.424-5.44 12.864t-12.864 5.44h-36.576q-7.424 0-12.864-5.44t-5.44-12.864v-164.576zM749.728 0.009h164.576v164.576h-164.576v-164.576zM749.728 201.129h164.576v182.848h-164.576v-182.848zM749.728 420.585h164.576v164.576h-164.576v-164.576z" />
<glyph unicode="&#xe062;" glyph-name="calendar-o" d="M109.714 0h804.571v585.143h-804.571v-585.143zM329.142 694.857v164.571q0 8-5.143 13.143t-13.143 5.143h-36.571q-8 0-13.143-5.143t-5.143-13.143v-164.571q0-8 5.143-13.143t13.143-5.143h36.571q8 0 13.143 5.143t5.143 13.143zM768 694.857v164.571q0 8-5.143 13.143t-13.143 5.143h-36.571q-8 0-13.143-5.143t-5.143-13.143v-164.571q0-8 5.143-13.143t13.143-5.143h36.571q8 0 13.143 5.143t5.143 13.143zM987.428 731.428v-731.429q0-29.714-21.714-51.429t-51.429-21.714h-804.571q-29.714 0-51.429 21.714t-21.714 51.429v731.429q0 29.714 21.714 51.429t51.429 21.714h73.143v54.857q0 37.714 26.857 64.571t64.571 26.857h36.571q37.714 0 64.571-26.857t26.857-64.571v-54.857h219.429v54.857q0 37.714 26.857 64.571t64.571 26.857h36.571q37.714 0 64.571-26.857t26.857-64.571v-54.857h73.143q29.714 0 51.429-21.714t21.714-51.429z" />
<glyph unicode="&#xe063;" glyph-name="spinner" d="M300.571 136c0-20.114-7.086-37.486-21.486-51.657s-31.543-21.486-51.657-21.486c-19.886 0-37.029 7.314-51.429 21.714s-21.714 31.543-21.714 51.429c0 20.114 7.086 37.486 21.486 51.657s31.543 21.486 51.657 21.486 37.486-7.086 51.657-21.486 21.486-31.543 21.486-51.657zM585.143 18.286c0-20.114-7.086-37.486-21.486-51.657s-31.543-21.486-51.657-21.486-37.486 7.086-51.657 21.486-21.486 31.543-21.486 51.657c0 20.114 7.086 37.486 21.486 51.657s31.543 21.486 51.657 21.486 37.486-7.086 51.657-21.486 21.486-31.543 21.486-51.657zM182.857 420.571c0-20.114-7.086-37.486-21.486-51.657s-31.543-21.486-51.657-21.486-37.486 7.086-51.657 21.486-21.486 31.543-21.486 51.657c0 20.114 7.086 37.486 21.486 51.657s31.543 21.486 51.657 21.486 37.486-7.086 51.657-21.486 21.486-31.543 21.486-51.657zM869.714 136c0-19.886-7.314-37.029-21.714-51.429s-31.543-21.714-51.429-21.714c-20.114 0-37.486 7.086-51.657 21.486s-21.486 31.543-21.486 51.657c0 20.114 7.086 37.486 21.486 51.657s31.543 21.486 51.657 21.486 37.486-7.086 51.657-21.486 21.486-31.543 21.486-51.657zM318.857 705.143c0-25.143-8.914-46.629-26.971-64.457s-39.314-26.971-64.457-26.971-46.629 8.914-64.457 26.971-26.971 39.314-26.971 64.457 8.914 46.629 26.971 64.457 39.314 26.971 64.457 26.971 46.629-8.914 64.457-26.971 26.971-39.314 26.971-64.457zM987.429 420.571c0-20.114-7.086-37.486-21.486-51.657s-31.543-21.486-51.657-21.486-37.486 7.086-51.657 21.486-21.486 31.543-21.486 51.657c0 20.114 7.086 37.486 21.486 51.657s31.543 21.486 51.657 21.486 37.486-7.086 51.657-21.486 21.486-31.543 21.486-51.657zM621.714 822.857c0-30.4-10.743-56.457-32-77.714s-47.314-32-77.714-32-56.457 10.743-77.714 32-32 47.314-32 77.714c0 30.4 10.743 56.457 32 77.714s47.314 32 77.714 32 56.457-10.743 77.714-32c21.257-21.257 32-47.314 32-77.714zM924.571 705.143c0-35.429-12.571-65.6-37.714-90.514s-55.314-37.486-90.286-37.486c-35.429 0-65.6 12.571-90.514 37.486s-37.486 55.086-37.486 90.514c0 34.971 12.571 65.143 37.486 90.286s55.086 37.714 90.514 37.714c34.971 0 65.143-12.571 90.286-37.714s37.714-55.314 37.714-90.286z" />
<glyph unicode="&#xe064;" glyph-name="key" d="M32 518.857c0 61.024 18.048 120.672 54.4 178.752s83.424 105.6 141.728 141.728 117.952 54.4 178.752 54.4c62.176 0 112.672-19.424 151.776-58.528s58.528-89.6 58.528-151.776c0-72-24.928-141.472-74.976-208.448l202.976-202.976 54.848 54.848c-1.152 1.152-6.176 5.728-14.848 13.952s-16.448 15.552-22.848 21.952-12.8 13.472-18.752 20.8-9.152 12.8-9.152 16.224c0 6.4 9.376 18.976 27.872 37.728 18.752 18.752 31.328 27.872 37.728 27.872 5.024 0 9.376-1.824 13.248-5.728 2.272-2.272 10.976-10.752 26.272-25.376s30.848-29.728 46.848-45.472c16-15.552 32.448-32 49.376-49.152s30.848-32 41.6-44.576 16.224-20.352 16.224-23.328c0-6.4-9.376-18.976-27.872-37.728-18.752-18.752-31.328-27.872-37.728-27.872-3.424 0-8.928 2.976-16.224 9.152s-14.4 12.352-20.8 18.752c-6.4 6.4-13.728 14.176-21.952 22.848s-12.8 13.728-13.952 14.848l-54.848-54.848 125.728-125.728c10.752-10.752 16-23.552 16-38.848 0-16-7.328-31.552-22.4-46.176s-30.176-22.4-46.176-22.4c-15.328 0-28.128 5.248-38.848 16l-383.776 383.776c-66.976-50.048-136.448-74.976-208.448-74.976-62.176 0-112.672 19.424-151.776 58.528s-58.528 89.6-58.528 151.776zM141.728 528.009c0-30.4 10.752-56.448 32-77.728s47.328-32 77.728-32 56.448 10.752 77.728 32c21.248 21.248 32 47.328 32 77.728 0 16-3.648 31.776-10.976 47.552 15.552-7.328 31.552-10.976 47.552-10.976 30.4 0 56.448 10.752 77.728 32s32 47.328 32 77.728-10.752 56.448-32 77.728-47.328 32-77.728 32-56.448-10.752-77.728-32-32-47.328-32-77.728c0-16 3.648-31.776 10.976-47.552-15.552 7.328-31.552 10.976-47.552 10.976-30.4 0-56.448-10.752-77.728-32s-32-47.328-32-77.728z" />
<glyph unicode="&#xe065;" glyph-name="lock" d="M365.712 475.429h292.571v109.714q0 60.571-42.857 103.429t-103.429 42.857-103.429-42.857-42.857-103.429v-109.714zM841.141 420.572v-329.143q0-22.857-16-38.857t-38.857-16h-548.571q-22.857 0-38.857 16t-16 38.857v329.143q0 22.857 16 38.857t38.857 16h18.286v109.714q0 105.143 75.429 180.571t180.571 75.429 180.571-75.429 75.429-180.571v-109.714h18.286q22.857 0 38.857-16t16-38.857z" />
<glyph unicode="&#xe066;" glyph-name="unlock-alt" d="M182.848 54.857v329.152c0 15.328 5.248 28.128 16 38.848s23.552 16 38.848 16h18.272v182.848c0 70.4 25.152 130.752 75.2 180.8s110.4 75.2 180.8 75.2 130.752-25.152 180.8-75.2c50.048-50.048 75.2-110.4 75.2-180.8 0-9.824-3.648-18.528-10.976-25.6-7.328-7.328-15.776-10.976-25.6-10.976h-36.576c-9.824 0-18.528 3.648-25.6 10.976-7.328 7.328-10.976 15.776-10.976 25.6 0 40.448-14.176 74.976-42.976 103.328s-63.072 42.976-103.328 42.976-74.976-14.176-103.328-42.976c-28.8-28.352-42.976-62.848-42.976-103.328v-182.848h420.576c15.328 0 28.128-5.248 38.848-16s16-23.552 16-38.848v-329.152c0-15.328-5.248-28.128-16-38.848s-23.552-16-38.848-16h-548.576c-15.328 0-28.128 5.248-38.848 16s-16 23.552-16 38.848z" />
<glyph unicode="&#xe067;" glyph-name="unlock" d="M987.428 585.143v-146.286q0-14.857-10.857-25.714t-25.714-10.857h-36.571q-14.857 0-25.714 10.857t-10.857 25.714v146.286q0 60.571-42.857 103.429t-103.429 42.857-103.429-42.857-42.857-103.429v-109.714h54.857q22.857 0 38.857-16t16-38.857v-329.143q0-22.857-16-38.857t-38.857-16h-548.571q-22.857 0-38.857 16t-16 38.857v329.143q0 22.857 16 38.857t38.857 16h384v109.714q0 105.714 75.143 180.857t180.857 75.143 180.857-75.143 75.143-180.857z" />
<glyph unicode="&#xe068;" glyph-name="thumb-tack" d="M182.848 292.585c0 46.848 14.848 89.152 44.8 126.624s63.776 56.224 101.472 56.224v292.576c-19.872 0-37.024 7.328-51.424 21.728s-21.728 31.552-21.728 51.424 7.328 37.024 21.728 51.424 31.552 21.728 51.424 21.728h365.728c19.872 0 37.024-7.328 51.424-21.728s21.728-31.552 21.728-51.424-7.328-37.024-21.728-51.424c-14.4-14.4-31.552-21.728-51.424-21.728v-292.576c37.728 0 71.552-18.752 101.472-56.224s44.8-79.776 44.8-126.624c0-9.824-3.648-18.528-10.976-25.6-7.328-7.328-15.776-10.976-25.6-10.976h-245.024l-29.248-275.872c-0.672-4.576-2.752-8.448-5.952-11.648s-7.072-4.8-11.648-4.8h-0.672c-10.272 0-16.448 5.024-18.272 15.552l-43.424 277.024h-230.848c-9.824 0-18.528 3.648-25.6 10.976s-10.976 15.552-10.976 25.376zM420.576 493.705c0-5.248 1.6-9.6 5.024-13.248 3.424-3.424 7.776-5.024 13.248-5.024 5.248 0 9.6 1.824 13.248 5.024 3.424 3.424 5.024 7.776 5.024 13.248v256c0 5.248-1.824 9.6-5.024 13.248-3.424 3.424-7.776 5.024-13.248 5.024-5.248 0-9.824-1.824-13.248-5.024-3.424-3.424-5.248-7.776-5.024-13.248v-256z" />
<glyph unicode="&#xe069;" glyph-name="flag" d="M18.272 804.585q0 30.272 21.44 51.712t51.712 21.44 51.712-21.44 21.44-51.712q0-41.152-36.576-62.848v-723.424q0-7.424-5.44-12.864t-12.864-5.44h-36.576q-7.424 0-12.864 5.44t-5.44 12.864v723.424q-36.576 21.728-36.576 62.848zM164.576 256.009v424q0 18.272 17.728 31.424 12 8 45.152 24.576 134.848 68.576 240.576 68.576 61.152 0 114.272-16.576t125.152-50.272q21.728-10.848 50.272-10.848 30.848 0 67.136 12t62.848 26.848 50.272 26.848 31.136 12q14.848 0 25.728-10.848t10.848-25.728v-436q0-14.272-7.136-22.016t-22.56-15.712q-122.848-66.272-210.848-66.272-34.848 0-70.56 12.576t-62.016 27.424-66.016 27.424-81.44 12.576q-109.728 0-265.152-83.424-9.728-5.152-18.848-5.152-14.848 0-25.728 10.848t-10.848 25.728z" />
<glyph unicode="&#xe06a;" glyph-name="flag-o" d="M950.857 353.714v352q-96.571-52-174.857-52-46.857 0-82.857 18.286-57.143 28-105.143 43.714t-101.714 15.714q-98.857 0-230.286-72.571v-342.286q140 64.571 247.429 64.571 31.429 0 59.143-4.286t56-14.857 44-17.714 47.143-22.571l16-8q25.143-12.571 57.714-12.571 68.571 0 167.429 52.571zM182.857 804.571q0-20-10-36.571t-26.571-26.286v-723.429q0-8-5.143-13.143t-13.143-5.143h-36.571q-8 0-13.143 5.143t-5.143 13.143v723.429q-16.571 9.714-26.571 26.286t-10 36.571q0 30.286 21.429 51.714t51.714 21.429 51.714-21.429 21.429-51.714zM1024 768v-436q0-22.286-20-32.571-5.714-2.857-9.714-5.143-124.571-66.286-210.857-66.286-50.286 0-90.286 20l-16 8q-36.571 18.857-56.571 27.429t-52 16.571-65.143 8q-58.286 0-134.571-25.143t-130.571-58.286q-8.571-5.143-18.857-5.143-9.143 0-18.286 4.571-18.286 10.857-18.286 32v424q0 20 17.714 31.429 20 12 44.857 24.286t65.143 29.714 87.143 28.286 88.571 10.857q64 0 119.429-17.714t119.429-49.143q21.714-10.857 50.857-10.857 69.714 0 177.143 64 12.571 6.857 17.714 9.714 17.714 9.143 35.429-1.143 17.714-11.429 17.714-31.429z" />
<glyph unicode="&#xe06b;" glyph-name="flag-checkered" d="M475.429 379.428v109.714q-103.429-9.143-219.429-66.857v-105.714q117.143 54.857 219.429 62.857zM475.429 618.286v112.571q-98.286-4.571-219.429-72v-108q122.857 63.429 219.429 67.429zM950.857 353.714v105.143q-134.286-66.286-219.429-40.571v128q-11.429 3.429-22.286 8.571-2.857 1.714-18.857 9.714t-19.714 9.714-18 8.571-19.714 8.857-18.571 7.429-20.571 7.143-20 4.857-22.571 4.286-22.571 2.286-25.143 1.143q-13.143 0-28-1.714v-126.857h10.857q58.286 0 110-16.571t112.857-46.857q10.857-5.143 22.286-8.571v-107.429q24-9.714 52-9.714 68.571 0 167.429 52.571zM950.857 597.714v108q-96.571-52-174.857-52-25.714 0-44.571 4.571v-112q84.571-24 219.429 51.429zM182.857 804.571q0-20-10-36.571t-26.571-26.286v-723.429q0-8-5.143-13.143t-13.143-5.143h-36.571q-8 0-13.143 5.143t-5.143 13.143v723.429q-16.571 9.714-26.571 26.286t-10 36.571q0 30.286 21.429 51.714t51.714 21.429 51.714-21.429 21.429-51.714zM1024 768v-436q0-22.286-20-32.571-5.714-2.857-9.714-5.143-124.571-66.286-210.857-66.286-50.286 0-90.286 20l-16 8q-36.571 18.857-56.571 27.429t-52 16.571-65.143 8q-58.286 0-134.571-25.143t-130.571-58.286q-8.571-5.143-18.857-5.143-9.143 0-18.286 4.571-18.286 10.857-18.286 32v424q0 20 17.714 31.429 20 12 44.857 24.286t65.143 29.714 87.143 28.286 88.571 10.857q64 0 119.429-17.714t119.429-49.143q21.714-10.857 50.857-10.857 69.714 0 177.143 64 12.571 6.857 17.714 9.714 17.714 9.143 35.429-1.143 17.714-11.429 17.714-31.429z" />
<glyph unicode="&#xe06c;" glyph-name="qrcode" d="M329.142 256v-73.143h-73.143v73.143h73.143zM329.142 694.857v-73.143h-73.143v73.143h73.143zM767.999 694.857v-73.143h-73.143v73.143h73.143zM182.856 110.286h219.429v218.857h-219.429v-218.857zM182.856 548.572h219.429v219.429h-219.429v-219.429zM621.713 548.572h219.429v219.429h-219.429v-219.429zM475.427 402.286v-365.714h-365.714v365.714h365.714zM767.999 109.715v-73.143h-73.143v73.143h73.143zM914.284 109.715v-73.143h-73.143v73.143h73.143zM914.284 402.286v-219.429h-219.429v73.143h-73.143v-219.429h-73.143v365.714h219.429v-73.143h73.143v73.143h73.143zM475.427 841.143v-365.714h-365.714v365.714h365.714zM914.284 841.143v-365.714h-365.714v365.714h365.714z" />
<glyph unicode="&#xe06d;" glyph-name="barcode" d="M36 36.572h-36v804.571h36v-804.571zM72 37.143h-18.286v804h18.286v-804zM125.714 37.143h-17.714v804h17.714v-804zM215.429 37.143h-17.714v804h17.714v-804zM305.143 37.143h-35.429v804h35.429v-804zM377.143 37.143h-17.714v804h17.714v-804zM413.143 37.143h-17.714v804h17.714v-804zM449.143 37.143h-17.714v804h17.714v-804zM538.857 37.143h-36v804h36v-804zM628.571 37.143h-36v804h36v-804zM700.571 37.143h-36v804h36v-804zM772.571 37.143h-36v804h36v-804zM826.286 37.143h-36v804h36v-804zM934.286 37.143h-53.714v804h53.714v-804zM970.286 37.143h-18.286v804h18.286v-804zM1024 36.572h-36v804.571h36v-804.571z" />
<glyph unicode="&#xe06e;" glyph-name="tag" d="M80 560.009v237.728c0 19.872 7.328 37.024 21.728 51.424s31.552 21.728 51.424 21.728h237.728c20.128 0 42.528-5.024 66.752-15.072s43.872-22.4 58.272-36.8l408.672-408c14.176-14.848 21.024-32.224 21.024-52.128 0-20.128-7.072-37.248-21.024-51.424l-280.448-281.152c-14.848-14.176-32.224-21.024-52.128-21.024-20.128 0-37.248 7.072-51.424 21.024l-408.448 409.152c-14.4 14.176-26.752 33.376-36.8 57.6-10.272 24.448-15.328 46.848-15.328 66.976v0zM189.728 688.009c0-20.128 7.072-37.472 21.472-51.648s31.552-21.472 51.648-21.472 37.472 7.072 51.648 21.472c14.176 14.176 21.472 31.552 21.472 51.648s-7.072 37.472-21.472 51.648-31.552 21.472-51.648 21.472-37.472-7.072-51.648-21.472-21.472-31.552-21.472-51.648z" />
<glyph unicode="&#xe06f;" glyph-name="tags" horiz-adv-x="1097" d="M6.848 560.009v237.728c0 19.872 7.328 37.024 21.728 51.424s31.552 21.728 51.424 21.728h237.728c20.128 0 42.528-5.024 66.752-15.072s43.872-22.4 58.272-36.8l408.672-408c14.176-14.848 21.024-32.224 21.024-52.128 0-20.128-7.072-37.248-21.024-51.424l-280.448-281.152c-14.848-14.176-32.224-21.024-52.128-21.024-20.128 0-37.248 7.072-51.424 21.024l-408.448 409.152c-14.4 14.176-26.752 33.376-36.8 57.6-10.272 24.448-15.328 46.848-15.328 66.976zM116.576 688.009c0-20.128 7.072-37.472 21.472-51.648s31.552-21.472 51.648-21.472 37.472 7.072 51.648 21.472 21.472 31.552 21.472 51.648c0 20.128-7.072 37.472-21.472 51.648s-31.552 21.472-51.648 21.472-37.472-7.072-51.648-21.472c-14.176-14.4-21.472-31.552-21.472-51.648zM409.152 870.857h128c20.128 0 42.528-5.024 66.752-15.072 24.448-10.048 43.872-22.4 58.272-36.8l408.672-408c14.176-14.848 21.024-32.224 21.024-52.128 0-20.128-7.072-37.248-21.024-51.424l-280.448-281.152c-14.848-14.176-32.224-21.024-52.128-21.024-13.728 0-24.928 2.752-33.824 8-8.672 5.248-18.752 13.952-30.176 25.6l268.576 268.576c14.176 14.176 21.024 31.328 21.024 51.424 0 19.872-7.072 37.024-21.024 52.128l-408.448 407.776c-14.4 14.4-33.824 26.752-58.272 36.8s-46.624 15.328-66.976 15.328v0z" />
</font>
</defs>
</svg>
